<svg width="147" height="158" viewBox="0 0 147 158" fill="none" xmlns="http://www.w3.org/2000/svg">
<path d="M11.672 53.896C11.427 53.0559 10.9804 51.333 10.6796 50.0673C10.1823 47.9755 9.76816 47.7661 6.12734 47.7661C3.92447 47.7661 2.12212 47.4634 2.12212 47.0934C2.12212 46.7235 3.52991 45.1434 5.25054 43.5821C7.19423 41.8184 8.38413 41.2016 8.39263 41.9535C8.42307 44.6459 9.65746 45.2524 13.2283 44.3293C15.8948 43.64 16.9199 43.691 17.8359 44.5585C18.8125 45.4832 18.4963 46.4405 15.9875 50.154C12.2093 55.7465 12.2112 55.7448 11.672 53.896ZM27.8262 50.6406C23.4381 43.9238 24.5081 42.6523 32.6503 44.908C33.6532 45.1858 34.3757 44.6248 34.8956 43.1646L35.6622 41.0115L39.1848 44.3888L42.7074 47.7661H38.0738C33.7429 47.7661 33.4058 47.9164 32.9126 50.0673C31.5868 55.8488 31.2533 55.8864 27.8262 50.6406ZM19.2051 43.2635C17.5251 41.5893 16.7213 41.3737 14.1689 41.9127C11.2955 42.5194 11.0787 42.4037 10.1501 39.7696C9.43011 37.7272 8.3805 36.7417 6.21128 36.0715C3.46013 35.2214 3.29843 34.9702 3.89127 32.4662C4.41368 30.2598 4.12047 29.36 2.26426 27.4735L0 25.1723L2.26426 22.8711C4.12047 20.9845 4.41368 20.0848 3.89127 17.8783C3.29843 15.3744 3.46013 15.1231 6.21128 14.2731C8.37545 13.6044 9.43028 12.6169 10.1445 10.5908C11.0504 8.02105 11.327 7.86372 13.9954 8.40041C16.2799 8.85987 17.4009 8.57004 19.4534 6.98932L22.0364 5L24.3695 7.00769C26.2601 8.63471 27.2476 8.90227 29.5774 8.41879C32.252 7.86377 32.5204 8.01516 33.4283 10.5908C34.1426 12.6169 35.1974 13.6044 37.3616 14.2731C40.1127 15.1231 40.2744 15.3744 39.6816 17.8783C39.1652 20.0595 39.4509 20.984 41.1888 22.754L43.3333 24.9382L41.2085 27.3565C39.52 29.278 39.2104 30.3276 39.7012 32.4662C40.2745 34.9644 40.1064 35.2234 37.3616 36.0715C35.1924 36.7417 34.1427 37.7272 33.4228 39.7696C32.4942 42.4037 32.2773 42.5194 29.404 41.9127C26.8515 41.3737 26.0477 41.5893 24.3677 43.2635C23.2682 44.3592 22.1066 45.2557 21.7864 45.2557C21.4662 45.2557 20.3046 44.3592 19.2051 43.2635Z" fill="#EB7B15"/>
<path d="M8.32324 104.705V106.085H2.77734V104.705H8.32324ZM2.99707 99.2031V112H1.37988V99.2031H2.99707ZM9.75586 99.2031V112H8.13867V99.2031H9.75586ZM16.9893 110.374V105.215C16.9893 104.84 16.9307 104.538 16.8135 104.31C16.7021 104.081 16.5322 103.914 16.3037 103.809C16.0811 103.703 15.7998 103.65 15.46 103.65C15.1318 103.65 14.8477 103.718 14.6074 103.853C14.373 103.987 14.1914 104.166 14.0625 104.389C13.9395 104.611 13.8779 104.857 13.8779 105.127H12.3223C12.3223 104.787 12.3955 104.45 12.542 104.116C12.6943 103.782 12.9111 103.48 13.1924 103.211C13.4736 102.936 13.8105 102.719 14.2031 102.561C14.6016 102.396 15.0469 102.314 15.5391 102.314C16.125 102.314 16.6436 102.411 17.0947 102.604C17.5459 102.792 17.9004 103.1 18.1582 103.527C18.416 103.955 18.5449 104.523 18.5449 105.232V109.926C18.5449 110.242 18.5684 110.579 18.6152 110.937C18.668 111.294 18.7412 111.602 18.835 111.859V112H17.2266C17.1504 111.812 17.0918 111.563 17.0508 111.253C17.0098 110.937 16.9893 110.644 16.9893 110.374ZM17.2354 106.234L17.2529 107.377H16.1719C15.8027 107.377 15.4658 107.418 15.1611 107.5C14.8623 107.582 14.6045 107.702 14.3877 107.86C14.1709 108.013 14.0039 108.203 13.8867 108.432C13.7754 108.66 13.7197 108.921 13.7197 109.214C13.7197 109.595 13.7725 109.899 13.8779 110.128C13.9834 110.351 14.1416 110.512 14.3525 110.611C14.5635 110.711 14.8301 110.761 15.1523 110.761C15.5449 110.761 15.8906 110.67 16.1895 110.488C16.4883 110.307 16.7197 110.087 16.8838 109.829C17.0537 109.571 17.1328 109.331 17.1211 109.108L17.4639 109.838C17.4404 110.066 17.3643 110.315 17.2354 110.585C17.1123 110.849 16.9395 111.104 16.7168 111.35C16.4941 111.59 16.2305 111.789 15.9258 111.947C15.627 112.1 15.29 112.176 14.915 112.176C14.3643 112.176 13.8809 112.07 13.4648 111.859C13.0547 111.648 12.7354 111.338 12.5068 110.928C12.2783 110.518 12.1641 110.011 12.1641 109.407C12.1641 108.95 12.2432 108.528 12.4014 108.142C12.5596 107.755 12.7939 107.421 13.1045 107.14C13.415 106.853 13.8047 106.63 14.2734 106.472C14.748 106.313 15.2959 106.234 15.917 106.234H17.2354ZM22.4121 102.49H23.9678L23.8535 106.05C23.8242 106.952 23.7363 107.731 23.5898 108.388C23.4434 109.044 23.2559 109.604 23.0273 110.066C22.7988 110.523 22.541 110.907 22.2539 111.218C21.9668 111.528 21.668 111.789 21.3574 112H20.6016L20.6367 110.673L20.9443 110.664C21.1143 110.436 21.2754 110.201 21.4277 109.961C21.5801 109.715 21.7178 109.425 21.8408 109.091C21.9639 108.751 22.0635 108.338 22.1396 107.852C22.2217 107.359 22.2744 106.759 22.2979 106.05L22.4121 102.49ZM22.7725 102.49H27.7207V112H26.165V103.993H22.7725V102.49ZM20.3027 110.664H28.8281V114.804H27.2725V112H21.8584V114.804H20.2939L20.3027 110.664ZM33.9082 110.849C34.2188 110.849 34.5 110.787 34.752 110.664C35.0098 110.535 35.2207 110.336 35.3848 110.066C35.5488 109.791 35.6426 109.434 35.666 108.994H37.125C37.1016 109.627 36.9404 110.184 36.6416 110.664C36.3486 111.139 35.9619 111.511 35.4814 111.78C35.0068 112.044 34.4824 112.176 33.9082 112.176C33.293 112.176 32.7568 112.076 32.2998 111.877C31.8486 111.678 31.4736 111.391 31.1748 111.016C30.8818 110.635 30.6621 110.175 30.5156 109.636C30.3691 109.091 30.2959 108.473 30.2959 107.781V106.709C30.2959 106.018 30.3691 105.402 30.5156 104.863C30.6621 104.318 30.8818 103.858 31.1748 103.483C31.4736 103.103 31.8486 102.812 32.2998 102.613C32.7568 102.414 33.293 102.314 33.9082 102.314C34.5527 102.314 35.1094 102.452 35.5781 102.728C36.0527 102.997 36.4219 103.39 36.6855 103.905C36.9551 104.415 37.1016 105.033 37.125 105.76H35.666C35.6426 105.291 35.5576 104.901 35.4111 104.591C35.2646 104.274 35.0654 104.04 34.8135 103.888C34.5615 103.729 34.2598 103.65 33.9082 103.65C33.498 103.65 33.1582 103.724 32.8887 103.87C32.625 104.011 32.417 104.216 32.2646 104.485C32.1123 104.755 32.0039 105.077 31.9395 105.452C31.8809 105.827 31.8516 106.246 31.8516 106.709V107.781C31.8516 108.244 31.8809 108.666 31.9395 109.047C32.0039 109.422 32.1094 109.744 32.2559 110.014C32.4082 110.283 32.6191 110.491 32.8887 110.638C33.1582 110.778 33.498 110.849 33.9082 110.849ZM40.6143 109.425L44.0596 102.49H45.6152V112H44.0596V105.065L40.6143 112H39.0674V102.49H40.6143V109.425ZM53.4111 102.49V103.835H49.623V102.49H53.4111ZM54.7998 102.49V112H53.2529V102.49H54.7998ZM49.2539 102.49H50.8096L50.5898 107.078C50.5547 107.787 50.4961 108.414 50.4141 108.959C50.3379 109.498 50.2295 109.961 50.0889 110.348C49.9541 110.734 49.7842 111.051 49.5791 111.297C49.3799 111.537 49.1396 111.716 48.8584 111.833C48.583 111.944 48.2637 112 47.9004 112H47.4346V110.567L47.7422 110.541C47.9473 110.523 48.123 110.465 48.2695 110.365C48.4219 110.266 48.5449 110.119 48.6387 109.926C48.7383 109.727 48.8174 109.472 48.876 109.161C48.9404 108.851 48.9902 108.481 49.0254 108.054C49.0605 107.626 49.0869 107.128 49.1045 106.56L49.2539 102.49ZM61.9541 110.374V105.215C61.9541 104.84 61.8955 104.538 61.7783 104.31C61.667 104.081 61.4971 103.914 61.2686 103.809C61.0459 103.703 60.7646 103.65 60.4248 103.65C60.0967 103.65 59.8125 103.718 59.5723 103.853C59.3379 103.987 59.1562 104.166 59.0273 104.389C58.9043 104.611 58.8428 104.857 58.8428 105.127H57.2871C57.2871 104.787 57.3604 104.45 57.5068 104.116C57.6592 103.782 57.876 103.48 58.1572 103.211C58.4385 102.936 58.7754 102.719 59.168 102.561C59.5664 102.396 60.0117 102.314 60.5039 102.314C61.0898 102.314 61.6084 102.411 62.0596 102.604C62.5107 102.792 62.8652 103.1 63.123 103.527C63.3809 103.955 63.5098 104.523 63.5098 105.232V109.926C63.5098 110.242 63.5332 110.579 63.5801 110.937C63.6328 111.294 63.7061 111.602 63.7998 111.859V112H62.1914C62.1152 111.812 62.0566 111.563 62.0156 111.253C61.9746 110.937 61.9541 110.644 61.9541 110.374ZM62.2002 106.234L62.2178 107.377H61.1367C60.7676 107.377 60.4307 107.418 60.126 107.5C59.8271 107.582 59.5693 107.702 59.3525 107.86C59.1357 108.013 58.9688 108.203 58.8516 108.432C58.7402 108.66 58.6846 108.921 58.6846 109.214C58.6846 109.595 58.7373 109.899 58.8428 110.128C58.9482 110.351 59.1064 110.512 59.3174 110.611C59.5283 110.711 59.7949 110.761 60.1172 110.761C60.5098 110.761 60.8555 110.67 61.1543 110.488C61.4531 110.307 61.6846 110.087 61.8486 109.829C62.0186 109.571 62.0977 109.331 62.0859 109.108L62.4287 109.838C62.4053 110.066 62.3291 110.315 62.2002 110.585C62.0771 110.849 61.9043 111.104 61.6816 111.35C61.459 111.59 61.1953 111.789 60.8906 111.947C60.5918 112.1 60.2549 112.176 59.8799 112.176C59.3291 112.176 58.8457 112.07 58.4297 111.859C58.0195 111.648 57.7002 111.338 57.4717 110.928C57.2432 110.518 57.1289 110.011 57.1289 109.407C57.1289 108.95 57.208 108.528 57.3662 108.142C57.5244 107.755 57.7588 107.421 58.0693 107.14C58.3799 106.853 58.7695 106.63 59.2383 106.472C59.7129 106.313 60.2607 106.234 60.8818 106.234H62.2002ZM69.9873 106.586V107.922H65.9531V106.586H69.9873ZM69.293 110.84C69.6035 110.84 69.8848 110.761 70.1367 110.603C70.3945 110.444 70.6055 110.228 70.7695 109.952C70.9336 109.671 71.0273 109.352 71.0508 108.994H72.5098C72.4863 109.557 72.3252 110.081 72.0264 110.567C71.7334 111.048 71.3467 111.438 70.8662 111.736C70.3916 112.029 69.8672 112.176 69.293 112.176C68.6777 112.176 68.1416 112.05 67.6846 111.798C67.2334 111.546 66.8584 111.2 66.5596 110.761C66.2666 110.321 66.0469 109.817 65.9004 109.249C65.7539 108.675 65.6807 108.068 65.6807 107.43V107.061C65.6807 106.422 65.7539 105.818 65.9004 105.25C66.0469 104.676 66.2666 104.169 66.5596 103.729C66.8584 103.29 67.2334 102.944 67.6846 102.692C68.1416 102.44 68.6777 102.314 69.293 102.314C69.9375 102.314 70.4941 102.467 70.9629 102.771C71.4375 103.07 71.8066 103.48 72.0703 104.002C72.3398 104.518 72.4863 105.104 72.5098 105.76H71.0508C71.0273 105.367 70.9424 105.013 70.7959 104.696C70.6494 104.38 70.4502 104.128 70.1982 103.94C69.9463 103.747 69.6445 103.65 69.293 103.65C68.8828 103.65 68.543 103.75 68.2734 103.949C68.0098 104.143 67.8018 104.406 67.6494 104.74C67.4971 105.068 67.3887 105.435 67.3242 105.839C67.2656 106.237 67.2363 106.645 67.2363 107.061V107.43C67.2363 107.846 67.2656 108.256 67.3242 108.66C67.3887 109.064 67.4971 109.431 67.6494 109.759C67.8018 110.087 68.0098 110.351 68.2734 110.55C68.543 110.743 68.8828 110.84 69.293 110.84ZM79.1016 109.838L81.6416 102.49H83.1182L79.6377 112H78.5654L75.0938 102.49H76.5703L79.1016 109.838ZM76.1221 102.49V112H74.5752V102.49H76.1221ZM82.0283 112V102.49H83.584V112H82.0283ZM85.7461 107.702V106.797C85.7461 106.059 85.8398 105.411 86.0273 104.854C86.2148 104.292 86.4756 103.823 86.8096 103.448C87.1436 103.073 87.5332 102.792 87.9785 102.604C88.4238 102.411 88.9014 102.314 89.4111 102.314C89.9326 102.314 90.416 102.411 90.8613 102.604C91.3066 102.792 91.6963 103.073 92.0303 103.448C92.3701 103.823 92.6338 104.292 92.8213 104.854C93.0088 105.411 93.1025 106.059 93.1025 106.797V107.702C93.1025 108.44 93.0088 109.091 92.8213 109.653C92.6338 110.21 92.373 110.676 92.0391 111.051C91.7051 111.426 91.3154 111.707 90.8701 111.895C90.4248 112.082 89.9443 112.176 89.4287 112.176C88.9131 112.176 88.4326 112.082 87.9873 111.895C87.542 111.707 87.1494 111.426 86.8096 111.051C86.4756 110.676 86.2148 110.21 86.0273 109.653C85.8398 109.091 85.7461 108.44 85.7461 107.702ZM87.3018 106.797V107.702C87.3018 108.224 87.3545 108.681 87.46 109.073C87.5654 109.466 87.7148 109.794 87.9082 110.058C88.1016 110.321 88.3271 110.521 88.585 110.655C88.8428 110.784 89.124 110.849 89.4287 110.849C89.7803 110.849 90.0879 110.784 90.3516 110.655C90.6211 110.521 90.8438 110.321 91.0195 110.058C91.1953 109.794 91.3271 109.466 91.415 109.073C91.5029 108.681 91.5469 108.224 91.5469 107.702V106.797C91.5469 106.275 91.4941 105.821 91.3887 105.435C91.2832 105.042 91.1338 104.714 90.9404 104.45C90.7471 104.181 90.5186 103.981 90.2549 103.853C89.9971 103.718 89.7158 103.65 89.4111 103.65C89.1123 103.65 88.834 103.718 88.5762 103.853C88.3184 103.981 88.0928 104.181 87.8994 104.45C87.7119 104.714 87.5654 105.042 87.46 105.435C87.3545 105.821 87.3018 106.275 87.3018 106.797ZM102.656 102.49V112H101.101V102.49H102.656ZM105.249 102.49V103.809H98.543V102.49H105.249ZM108.571 102.49V112H107.024V102.49H108.571ZM106.937 99.9678C106.937 99.7041 107.01 99.4814 107.156 99.2998C107.303 99.1182 107.522 99.0273 107.815 99.0273C108.108 99.0273 108.328 99.1182 108.475 99.2998C108.627 99.4814 108.703 99.7041 108.703 99.9678C108.703 100.22 108.627 100.437 108.475 100.618C108.328 100.794 108.108 100.882 107.815 100.882C107.522 100.882 107.303 100.794 107.156 100.618C107.01 100.437 106.937 100.22 106.937 99.9678ZM116.341 102.49V103.835H112.553V102.49H116.341ZM117.729 102.49V112H116.183V102.49H117.729ZM112.184 102.49H113.739L113.52 107.078C113.484 107.787 113.426 108.414 113.344 108.959C113.268 109.498 113.159 109.961 113.019 110.348C112.884 110.734 112.714 111.051 112.509 111.297C112.31 111.537 112.069 111.716 111.788 111.833C111.513 111.944 111.193 112 110.83 112H110.364V110.567L110.672 110.541C110.877 110.523 111.053 110.465 111.199 110.365C111.352 110.266 111.475 110.119 111.568 109.926C111.668 109.727 111.747 109.472 111.806 109.161C111.87 108.851 111.92 108.481 111.955 108.054C111.99 107.626 112.017 107.128 112.034 106.56L112.184 102.49ZM121.526 105.76H123.847C124.503 105.76 125.054 105.895 125.499 106.164C125.944 106.428 126.281 106.794 126.51 107.263C126.738 107.726 126.853 108.253 126.853 108.845C126.853 109.284 126.788 109.697 126.659 110.084C126.53 110.465 126.337 110.799 126.079 111.086C125.827 111.373 125.514 111.599 125.139 111.763C124.77 111.921 124.339 112 123.847 112H120.366V102.49H121.913V110.664H123.847C124.21 110.664 124.497 110.579 124.708 110.409C124.919 110.239 125.068 110.02 125.156 109.75C125.25 109.48 125.297 109.199 125.297 108.906C125.297 108.619 125.25 108.338 125.156 108.062C125.068 107.787 124.919 107.559 124.708 107.377C124.497 107.189 124.21 107.096 123.847 107.096H121.526V105.76ZM130.535 102.49V112H128.979V102.49H130.535ZM135.765 102.49L131.941 107.939H130.017L129.771 106.516H131.309L133.901 102.49H135.765ZM134.042 112L131.256 107.693L132.249 106.516L135.993 112H134.042ZM139.175 109.425L142.62 102.49H144.176V112H142.62V105.065L139.175 112H137.628V102.49H139.175V109.425ZM2.74219 128.465H4.41211L2.06543 133H0.395508L2.74219 128.465ZM3.96387 123.49H7.37402V133H5.82715V124.809H3.96387C3.60645 124.809 3.31348 124.888 3.08496 125.046C2.85645 125.198 2.68945 125.397 2.58398 125.644C2.47852 125.89 2.42578 126.145 2.42578 126.408C2.42578 126.666 2.47266 126.915 2.56641 127.155C2.66602 127.39 2.81836 127.583 3.02344 127.735C3.23438 127.888 3.50391 127.964 3.83203 127.964H6.21387V129.3H3.83203C3.36328 129.3 2.94434 129.227 2.5752 129.08C2.21191 128.934 1.90137 128.731 1.64355 128.474C1.3916 128.21 1.19824 127.902 1.06348 127.551C0.93457 127.193 0.870117 126.807 0.870117 126.391C0.870117 125.975 0.9375 125.591 1.07227 125.239C1.21289 124.888 1.41504 124.58 1.67871 124.316C1.94824 124.053 2.27344 123.851 2.6543 123.71C3.03516 123.563 3.47168 123.49 3.96387 123.49ZM11.5488 123.49V133H9.99316V123.49H11.5488ZM16.7783 123.49L12.9551 128.939H11.0303L10.7842 127.516H12.3223L14.915 123.49H16.7783ZM15.0557 133L12.2695 128.693L13.2627 127.516L17.0068 133H15.0557ZM20.1709 123.49V133H18.624V123.49H20.1709ZM18.5361 120.968C18.5361 120.704 18.6094 120.481 18.7559 120.3C18.9023 120.118 19.1221 120.027 19.415 120.027C19.708 120.027 19.9277 120.118 20.0742 120.3C20.2266 120.481 20.3027 120.704 20.3027 120.968C20.3027 121.22 20.2266 121.437 20.0742 121.618C19.9277 121.794 19.708 121.882 19.415 121.882C19.1221 121.882 18.9023 121.794 18.7559 121.618C18.6094 121.437 18.5361 121.22 18.5361 120.968ZM25.9277 131.849C26.2383 131.849 26.5195 131.787 26.7715 131.664C27.0293 131.535 27.2402 131.336 27.4043 131.066C27.5684 130.791 27.6621 130.434 27.6855 129.994H29.1445C29.1211 130.627 28.96 131.184 28.6611 131.664C28.3682 132.139 27.9814 132.511 27.501 132.78C27.0264 133.044 26.502 133.176 25.9277 133.176C25.3125 133.176 24.7764 133.076 24.3193 132.877C23.8682 132.678 23.4932 132.391 23.1943 132.016C22.9014 131.635 22.6816 131.175 22.5352 130.636C22.3887 130.091 22.3154 129.473 22.3154 128.781V127.709C22.3154 127.018 22.3887 126.402 22.5352 125.863C22.6816 125.318 22.9014 124.858 23.1943 124.483C23.4932 124.103 23.8682 123.812 24.3193 123.613C24.7764 123.414 25.3125 123.314 25.9277 123.314C26.5723 123.314 27.1289 123.452 27.5977 123.728C28.0723 123.997 28.4414 124.39 28.7051 124.905C28.9746 125.415 29.1211 126.033 29.1445 126.76H27.6855C27.6621 126.291 27.5771 125.901 27.4307 125.591C27.2842 125.274 27.085 125.04 26.833 124.888C26.5811 124.729 26.2793 124.65 25.9277 124.65C25.5176 124.65 25.1777 124.724 24.9082 124.87C24.6445 125.011 24.4365 125.216 24.2842 125.485C24.1318 125.755 24.0234 126.077 23.959 126.452C23.9004 126.827 23.8711 127.246 23.8711 127.709V128.781C23.8711 129.244 23.9004 129.666 23.959 130.047C24.0234 130.422 24.1289 130.744 24.2754 131.014C24.4277 131.283 24.6387 131.491 24.9082 131.638C25.1777 131.778 25.5176 131.849 25.9277 131.849ZM36.3604 127.612V128.931H32.3262V127.612H36.3604ZM32.6426 123.49V133H31.0869V123.49H32.6426ZM37.626 123.49V133H36.0703V123.49H37.626ZM41.792 130.425L45.2373 123.49H46.793V133H45.2373V126.065L41.792 133H40.2451V123.49H41.792V130.425ZM50.9678 130.425L54.4131 123.49H55.9688V133H54.4131V126.065L50.9678 133H49.4209V123.49H50.9678V130.425ZM54 120.045H55.3184C55.3184 120.502 55.2129 120.909 55.002 121.267C54.791 121.618 54.4893 121.894 54.0967 122.093C53.7041 122.292 53.2383 122.392 52.6992 122.392C51.8848 122.392 51.2402 122.175 50.7656 121.741C50.2969 121.302 50.0625 120.736 50.0625 120.045H51.3809C51.3809 120.391 51.4805 120.695 51.6797 120.959C51.8789 121.223 52.2188 121.354 52.6992 121.354C53.168 121.354 53.502 121.223 53.7012 120.959C53.9004 120.695 54 120.391 54 120.045ZM66.0059 123.49V133H64.4502V123.49H66.0059ZM68.5986 123.49V124.809H61.8926V123.49H68.5986ZM69.5566 128.702V127.797C69.5566 127.059 69.6504 126.411 69.8379 125.854C70.0254 125.292 70.2861 124.823 70.6201 124.448C70.9541 124.073 71.3438 123.792 71.7891 123.604C72.2344 123.411 72.7119 123.314 73.2217 123.314C73.7432 123.314 74.2266 123.411 74.6719 123.604C75.1172 123.792 75.5068 124.073 75.8408 124.448C76.1807 124.823 76.4443 125.292 76.6318 125.854C76.8193 126.411 76.9131 127.059 76.9131 127.797V128.702C76.9131 129.44 76.8193 130.091 76.6318 130.653C76.4443 131.21 76.1836 131.676 75.8496 132.051C75.5156 132.426 75.126 132.707 74.6807 132.895C74.2354 133.082 73.7549 133.176 73.2393 133.176C72.7236 133.176 72.2432 133.082 71.7979 132.895C71.3525 132.707 70.96 132.426 70.6201 132.051C70.2861 131.676 70.0254 131.21 69.8379 130.653C69.6504 130.091 69.5566 129.44 69.5566 128.702ZM71.1123 127.797V128.702C71.1123 129.224 71.165 129.681 71.2705 130.073C71.376 130.466 71.5254 130.794 71.7188 131.058C71.9121 131.321 72.1377 131.521 72.3955 131.655C72.6533 131.784 72.9346 131.849 73.2393 131.849C73.5908 131.849 73.8984 131.784 74.1621 131.655C74.4316 131.521 74.6543 131.321 74.8301 131.058C75.0059 130.794 75.1377 130.466 75.2256 130.073C75.3135 129.681 75.3574 129.224 75.3574 128.702V127.797C75.3574 127.275 75.3047 126.821 75.1992 126.435C75.0938 126.042 74.9443 125.714 74.751 125.45C74.5576 125.181 74.3291 124.981 74.0654 124.853C73.8076 124.718 73.5264 124.65 73.2217 124.65C72.9229 124.65 72.6445 124.718 72.3867 124.853C72.1289 124.981 71.9033 125.181 71.71 125.45C71.5225 125.714 71.376 126.042 71.2705 126.435C71.165 126.821 71.1123 127.275 71.1123 127.797ZM82.749 128.816H80.209L80.1914 127.516H82.2305C82.6348 127.516 82.9688 127.466 83.2324 127.366C83.502 127.267 83.7041 127.117 83.8389 126.918C83.9736 126.719 84.041 126.473 84.041 126.18C84.041 125.951 84.0029 125.752 83.9268 125.582C83.8506 125.406 83.7363 125.263 83.584 125.151C83.4375 125.034 83.2529 124.949 83.0303 124.896C82.8076 124.838 82.5469 124.809 82.248 124.809H80.6045V133H79.0576V123.49H82.248C82.7637 123.49 83.2266 123.543 83.6367 123.648C84.0527 123.754 84.4043 123.915 84.6914 124.132C84.9844 124.343 85.207 124.612 85.3594 124.94C85.5176 125.269 85.5967 125.655 85.5967 126.101C85.5967 126.388 85.5469 126.66 85.4473 126.918C85.3477 127.176 85.1982 127.404 84.999 127.604C84.8057 127.803 84.5654 127.967 84.2783 128.096C83.9912 128.219 83.6602 128.298 83.2852 128.333L82.749 128.816ZM82.749 133H79.6289L80.4287 131.682H82.749C83.1064 131.682 83.3994 131.626 83.6279 131.515C83.8564 131.397 84.0264 131.233 84.1377 131.022C84.2549 130.806 84.3135 130.548 84.3135 130.249C84.3135 129.95 84.2549 129.695 84.1377 129.484C84.0264 129.268 83.8564 129.104 83.6279 128.992C83.3994 128.875 83.1064 128.816 82.749 128.816H80.666L80.6836 127.516H83.2588L83.8037 128.008C84.2549 128.049 84.6328 128.178 84.9375 128.395C85.248 128.611 85.4795 128.887 85.6318 129.221C85.79 129.549 85.8691 129.906 85.8691 130.293C85.8691 130.738 85.7988 131.131 85.6582 131.471C85.5176 131.811 85.3125 132.095 85.043 132.323C84.7734 132.546 84.4453 132.716 84.0586 132.833C83.6719 132.944 83.2354 133 82.749 133ZM92.6455 131.374V126.215C92.6455 125.84 92.5869 125.538 92.4697 125.31C92.3584 125.081 92.1885 124.914 91.96 124.809C91.7373 124.703 91.4561 124.65 91.1162 124.65C90.7881 124.65 90.5039 124.718 90.2637 124.853C90.0293 124.987 89.8477 125.166 89.7188 125.389C89.5957 125.611 89.5342 125.857 89.5342 126.127H87.9785C87.9785 125.787 88.0518 125.45 88.1982 125.116C88.3506 124.782 88.5674 124.48 88.8486 124.211C89.1299 123.936 89.4668 123.719 89.8594 123.561C90.2578 123.396 90.7031 123.314 91.1953 123.314C91.7812 123.314 92.2998 123.411 92.751 123.604C93.2021 123.792 93.5566 124.1 93.8145 124.527C94.0723 124.955 94.2012 125.523 94.2012 126.232V130.926C94.2012 131.242 94.2246 131.579 94.2715 131.937C94.3242 132.294 94.3975 132.602 94.4912 132.859V133H92.8828C92.8066 132.812 92.748 132.563 92.707 132.253C92.666 131.937 92.6455 131.644 92.6455 131.374ZM92.8916 127.234L92.9092 128.377H91.8281C91.459 128.377 91.1221 128.418 90.8174 128.5C90.5186 128.582 90.2607 128.702 90.0439 128.86C89.8271 129.013 89.6602 129.203 89.543 129.432C89.4316 129.66 89.376 129.921 89.376 130.214C89.376 130.595 89.4287 130.899 89.5342 131.128C89.6396 131.351 89.7979 131.512 90.0088 131.611C90.2197 131.711 90.4863 131.761 90.8086 131.761C91.2012 131.761 91.5469 131.67 91.8457 131.488C92.1445 131.307 92.376 131.087 92.54 130.829C92.71 130.571 92.7891 130.331 92.7773 130.108L93.1201 130.838C93.0967 131.066 93.0205 131.315 92.8916 131.585C92.7686 131.849 92.5957 132.104 92.373 132.35C92.1504 132.59 91.8867 132.789 91.582 132.947C91.2832 133.1 90.9463 133.176 90.5713 133.176C90.0205 133.176 89.5371 133.07 89.1211 132.859C88.7109 132.648 88.3916 132.338 88.1631 131.928C87.9346 131.518 87.8203 131.011 87.8203 130.407C87.8203 129.95 87.8994 129.528 88.0576 129.142C88.2158 128.755 88.4502 128.421 88.7607 128.14C89.0713 127.853 89.4609 127.63 89.9297 127.472C90.4043 127.313 90.9521 127.234 91.5732 127.234H92.8916ZM98.1738 125.318V136.656H96.6182V123.49H98.0332L98.1738 125.318ZM103.491 127.814V128.702C103.491 129.452 103.421 130.108 103.28 130.671C103.146 131.228 102.943 131.693 102.674 132.068C102.41 132.438 102.085 132.716 101.698 132.903C101.312 133.085 100.869 133.176 100.371 133.176C99.873 133.176 99.4395 133.082 99.0703 132.895C98.707 132.701 98.3994 132.423 98.1475 132.06C97.9014 131.696 97.7051 131.26 97.5586 130.75C97.418 130.234 97.3213 129.657 97.2686 129.019V127.665C97.3213 126.991 97.418 126.388 97.5586 125.854C97.6992 125.315 97.8926 124.858 98.1387 124.483C98.3906 124.103 98.6982 123.812 99.0615 123.613C99.4307 123.414 99.8613 123.314 100.354 123.314C100.863 123.314 101.312 123.402 101.698 123.578C102.091 123.754 102.419 124.026 102.683 124.396C102.952 124.759 103.154 125.225 103.289 125.793C103.424 126.355 103.491 127.029 103.491 127.814ZM101.936 128.702V127.814C101.936 127.287 101.895 126.827 101.812 126.435C101.736 126.042 101.613 125.717 101.443 125.459C101.273 125.201 101.06 125.008 100.802 124.879C100.544 124.75 100.233 124.686 99.8701 124.686C99.5596 124.686 99.2842 124.75 99.0439 124.879C98.8096 125.008 98.6074 125.184 98.4375 125.406C98.2676 125.623 98.127 125.872 98.0156 126.153C97.9043 126.429 97.8223 126.716 97.7695 127.015V129.678C97.8691 130.053 98.001 130.407 98.165 130.741C98.3291 131.069 98.5488 131.336 98.8242 131.541C99.1055 131.746 99.46 131.849 99.8877 131.849C100.245 131.849 100.553 131.784 100.811 131.655C101.068 131.526 101.279 131.333 101.443 131.075C101.613 130.812 101.736 130.483 101.812 130.091C101.895 129.692 101.936 129.229 101.936 128.702ZM107.042 131.066V132.376C107.042 132.909 106.907 133.472 106.638 134.063C106.368 134.661 105.99 135.159 105.504 135.558L104.581 134.916C104.769 134.658 104.927 134.395 105.056 134.125C105.185 133.861 105.281 133.586 105.346 133.299C105.416 133.018 105.451 132.719 105.451 132.402V131.066H107.042ZM114.75 128.465H116.42L114.073 133H112.403L114.75 128.465ZM115.972 123.49H119.382V133H117.835V124.809H115.972C115.614 124.809 115.321 124.888 115.093 125.046C114.864 125.198 114.697 125.397 114.592 125.644C114.486 125.89 114.434 126.145 114.434 126.408C114.434 126.666 114.48 126.915 114.574 127.155C114.674 127.39 114.826 127.583 115.031 127.735C115.242 127.888 115.512 127.964 115.84 127.964H118.222V129.3H115.84C115.371 129.3 114.952 129.227 114.583 129.08C114.22 128.934 113.909 128.731 113.651 128.474C113.399 128.21 113.206 127.902 113.071 127.551C112.942 127.193 112.878 126.807 112.878 126.391C112.878 125.975 112.945 125.591 113.08 125.239C113.221 124.888 113.423 124.58 113.687 124.316C113.956 124.053 114.281 123.851 114.662 123.71C115.043 123.563 115.479 123.49 115.972 123.49ZM123.557 123.49V133H122.001V123.49H123.557ZM128.786 123.49L124.963 128.939H123.038L122.792 127.516H124.33L126.923 123.49H128.786ZM127.063 133L124.277 128.693L125.271 127.516L129.015 133H127.063ZM132.196 130.425L135.642 123.49H137.197V133H135.642V126.065L132.196 133H130.649V123.49H132.196V130.425ZM141.372 130.425L144.817 123.49H146.373V133H144.817V126.065L141.372 133H139.825V123.49H141.372V130.425ZM144.404 120.045H145.723C145.723 120.502 145.617 120.909 145.406 121.267C145.195 121.618 144.894 121.894 144.501 122.093C144.108 122.292 143.643 122.392 143.104 122.392C142.289 122.392 141.645 122.175 141.17 121.741C140.701 121.302 140.467 120.736 140.467 120.045H141.785C141.785 120.391 141.885 120.695 142.084 120.959C142.283 121.223 142.623 121.354 143.104 121.354C143.572 121.354 143.906 121.223 144.105 120.959C144.305 120.695 144.404 120.391 144.404 120.045ZM5.00098 149.816H2.46094L2.44336 148.516H4.48242C4.88672 148.516 5.2207 148.466 5.48438 148.366C5.75391 148.267 5.95605 148.117 6.09082 147.918C6.22559 147.719 6.29297 147.473 6.29297 147.18C6.29297 146.951 6.25488 146.752 6.17871 146.582C6.10254 146.406 5.98828 146.263 5.83594 146.151C5.68945 146.034 5.50488 145.949 5.28223 145.896C5.05957 145.838 4.79883 145.809 4.5 145.809H2.85645V154H1.30957V144.49H4.5C5.01562 144.49 5.47852 144.543 5.88867 144.648C6.30469 144.754 6.65625 144.915 6.94336 145.132C7.23633 145.343 7.45898 145.612 7.61133 145.94C7.76953 146.269 7.84863 146.655 7.84863 147.101C7.84863 147.388 7.79883 147.66 7.69922 147.918C7.59961 148.176 7.4502 148.404 7.25098 148.604C7.05762 148.803 6.81738 148.967 6.53027 149.096C6.24316 149.219 5.91211 149.298 5.53711 149.333L5.00098 149.816ZM5.00098 154H1.88086L2.68066 152.682H5.00098C5.3584 152.682 5.65137 152.626 5.87988 152.515C6.1084 152.397 6.27832 152.233 6.38965 152.022C6.50684 151.806 6.56543 151.548 6.56543 151.249C6.56543 150.95 6.50684 150.695 6.38965 150.484C6.27832 150.268 6.1084 150.104 5.87988 149.992C5.65137 149.875 5.3584 149.816 5.00098 149.816H2.91797L2.93555 148.516H5.51074L6.05566 149.008C6.50684 149.049 6.88477 149.178 7.18945 149.395C7.5 149.611 7.73145 149.887 7.88379 150.221C8.04199 150.549 8.12109 150.906 8.12109 151.293C8.12109 151.738 8.05078 152.131 7.91016 152.471C7.76953 152.811 7.56445 153.095 7.29492 153.323C7.02539 153.546 6.69727 153.716 6.31055 153.833C5.92383 153.944 5.4873 154 5.00098 154ZM11.9092 144.49V154H10.3623V144.49H11.9092ZM10.2744 141.968C10.2744 141.704 10.3477 141.481 10.4941 141.3C10.6406 141.118 10.8604 141.027 11.1533 141.027C11.4463 141.027 11.666 141.118 11.8125 141.3C11.9648 141.481 12.041 141.704 12.041 141.968C12.041 142.22 11.9648 142.437 11.8125 142.618C11.666 142.794 11.4463 142.882 11.1533 142.882C10.8604 142.882 10.6406 142.794 10.4941 142.618C10.3477 142.437 10.2744 142.22 10.2744 141.968ZM15.8203 144.49H17.376L17.2617 148.05C17.2324 148.952 17.1445 149.731 16.998 150.388C16.8516 151.044 16.6641 151.604 16.4355 152.066C16.207 152.523 15.9492 152.907 15.6621 153.218C15.375 153.528 15.0762 153.789 14.7656 154H14.0098L14.0449 152.673L14.3525 152.664C14.5225 152.436 14.6836 152.201 14.8359 151.961C14.9883 151.715 15.126 151.425 15.249 151.091C15.3721 150.751 15.4717 150.338 15.5479 149.852C15.6299 149.359 15.6826 148.759 15.7061 148.05L15.8203 144.49ZM16.1807 144.49H21.1289V154H19.5732V145.993H16.1807V144.49ZM13.7109 152.664H22.2363V156.804H20.6807V154H15.2666V156.804H13.7021L13.7109 152.664ZM29.3115 144.49V145.835H25.5146V144.49H29.3115ZM25.7168 144.49V154H24.1611V144.49H25.7168ZM30.709 144.49V154H29.1533V144.49H30.709ZM32.8711 149.702V148.797C32.8711 148.059 32.9648 147.411 33.1523 146.854C33.3398 146.292 33.6006 145.823 33.9346 145.448C34.2686 145.073 34.6582 144.792 35.1035 144.604C35.5488 144.411 36.0264 144.314 36.5361 144.314C37.0576 144.314 37.541 144.411 37.9863 144.604C38.4316 144.792 38.8213 145.073 39.1553 145.448C39.4951 145.823 39.7588 146.292 39.9463 146.854C40.1338 147.411 40.2275 148.059 40.2275 148.797V149.702C40.2275 150.44 40.1338 151.091 39.9463 151.653C39.7588 152.21 39.498 152.676 39.1641 153.051C38.8301 153.426 38.4404 153.707 37.9951 153.895C37.5498 154.082 37.0693 154.176 36.5537 154.176C36.0381 154.176 35.5576 154.082 35.1123 153.895C34.667 153.707 34.2744 153.426 33.9346 153.051C33.6006 152.676 33.3398 152.21 33.1523 151.653C32.9648 151.091 32.8711 150.44 32.8711 149.702ZM34.4268 148.797V149.702C34.4268 150.224 34.4795 150.681 34.585 151.073C34.6904 151.466 34.8398 151.794 35.0332 152.058C35.2266 152.321 35.4521 152.521 35.71 152.655C35.9678 152.784 36.249 152.849 36.5537 152.849C36.9053 152.849 37.2129 152.784 37.4766 152.655C37.7461 152.521 37.9688 152.321 38.1445 152.058C38.3203 151.794 38.4521 151.466 38.54 151.073C38.6279 150.681 38.6719 150.224 38.6719 149.702V148.797C38.6719 148.275 38.6191 147.821 38.5137 147.435C38.4082 147.042 38.2588 146.714 38.0654 146.45C37.8721 146.181 37.6436 145.981 37.3799 145.853C37.1221 145.718 36.8408 145.65 36.5361 145.65C36.2373 145.65 35.959 145.718 35.7012 145.853C35.4434 145.981 35.2178 146.181 35.0244 146.45C34.8369 146.714 34.6904 147.042 34.585 147.435C34.4795 147.821 34.4268 148.275 34.4268 148.797ZM46.0635 149.816H43.5234L43.5059 148.516H45.5449C45.9492 148.516 46.2832 148.466 46.5469 148.366C46.8164 148.267 47.0186 148.117 47.1533 147.918C47.2881 147.719 47.3555 147.473 47.3555 147.18C47.3555 146.951 47.3174 146.752 47.2412 146.582C47.165 146.406 47.0508 146.263 46.8984 146.151C46.752 146.034 46.5674 145.949 46.3447 145.896C46.1221 145.838 45.8613 145.809 45.5625 145.809H43.9189V154H42.3721V144.49H45.5625C46.0781 144.49 46.541 144.543 46.9512 144.648C47.3672 144.754 47.7188 144.915 48.0059 145.132C48.2988 145.343 48.5215 145.612 48.6738 145.94C48.832 146.269 48.9111 146.655 48.9111 147.101C48.9111 147.388 48.8613 147.66 48.7617 147.918C48.6621 148.176 48.5127 148.404 48.3135 148.604C48.1201 148.803 47.8799 148.967 47.5928 149.096C47.3057 149.219 46.9746 149.298 46.5996 149.333L46.0635 149.816ZM46.0635 154H42.9434L43.7432 152.682H46.0635C46.4209 152.682 46.7139 152.626 46.9424 152.515C47.1709 152.397 47.3408 152.233 47.4521 152.022C47.5693 151.806 47.6279 151.548 47.6279 151.249C47.6279 150.95 47.5693 150.695 47.4521 150.484C47.3408 150.268 47.1709 150.104 46.9424 149.992C46.7139 149.875 46.4209 149.816 46.0635 149.816H43.9805L43.998 148.516H46.5732L47.1182 149.008C47.5693 149.049 47.9473 149.178 48.252 149.395C48.5625 149.611 48.7939 149.887 48.9463 150.221C49.1045 150.549 49.1836 150.906 49.1836 151.293C49.1836 151.738 49.1133 152.131 48.9727 152.471C48.832 152.811 48.627 153.095 48.3574 153.323C48.0879 153.546 47.7598 153.716 47.373 153.833C46.9863 153.944 46.5498 154 46.0635 154ZM52.9717 144.49V154H51.4248V144.49H52.9717ZM51.3369 141.968C51.3369 141.704 51.4102 141.481 51.5566 141.3C51.7031 141.118 51.9229 141.027 52.2158 141.027C52.5088 141.027 52.7285 141.118 52.875 141.3C53.0273 141.481 53.1035 141.704 53.1035 141.968C53.1035 142.22 53.0273 142.437 52.875 142.618C52.7285 142.794 52.5088 142.882 52.2158 142.882C51.9229 142.882 51.7031 142.794 51.5566 142.618C51.4102 142.437 51.3369 142.22 51.3369 141.968ZM56.8828 144.49H58.4385L58.3242 148.05C58.2949 148.952 58.207 149.731 58.0605 150.388C57.9141 151.044 57.7266 151.604 57.498 152.066C57.2695 152.523 57.0117 152.907 56.7246 153.218C56.4375 153.528 56.1387 153.789 55.8281 154H55.0723L55.1074 152.673L55.415 152.664C55.585 152.436 55.7461 152.201 55.8984 151.961C56.0508 151.715 56.1885 151.425 56.3115 151.091C56.4346 150.751 56.5342 150.338 56.6104 149.852C56.6924 149.359 56.7451 148.759 56.7686 148.05L56.8828 144.49ZM57.2432 144.49H62.1914V154H60.6357V145.993H57.2432V144.49ZM54.7734 152.664H63.2988V156.804H61.7432V154H56.3291V156.804H54.7646L54.7734 152.664ZM69.7412 152.374V147.215C69.7412 146.84 69.6826 146.538 69.5654 146.31C69.4541 146.081 69.2842 145.914 69.0557 145.809C68.833 145.703 68.5518 145.65 68.2119 145.65C67.8838 145.65 67.5996 145.718 67.3594 145.853C67.125 145.987 66.9434 146.166 66.8145 146.389C66.6914 146.611 66.6299 146.857 66.6299 147.127H65.0742C65.0742 146.787 65.1475 146.45 65.2939 146.116C65.4463 145.782 65.6631 145.48 65.9443 145.211C66.2256 144.936 66.5625 144.719 66.9551 144.561C67.3535 144.396 67.7988 144.314 68.291 144.314C68.877 144.314 69.3955 144.411 69.8467 144.604C70.2979 144.792 70.6523 145.1 70.9102 145.527C71.168 145.955 71.2969 146.523 71.2969 147.232V151.926C71.2969 152.242 71.3203 152.579 71.3672 152.937C71.4199 153.294 71.4932 153.602 71.5869 153.859V154H69.9785C69.9023 153.812 69.8438 153.563 69.8027 153.253C69.7617 152.937 69.7412 152.644 69.7412 152.374ZM69.9873 148.234L70.0049 149.377H68.9238C68.5547 149.377 68.2178 149.418 67.9131 149.5C67.6143 149.582 67.3564 149.702 67.1396 149.86C66.9229 150.013 66.7559 150.203 66.6387 150.432C66.5273 150.66 66.4717 150.921 66.4717 151.214C66.4717 151.595 66.5244 151.899 66.6299 152.128C66.7354 152.351 66.8936 152.512 67.1045 152.611C67.3154 152.711 67.582 152.761 67.9043 152.761C68.2969 152.761 68.6426 152.67 68.9414 152.488C69.2402 152.307 69.4717 152.087 69.6357 151.829C69.8057 151.571 69.8848 151.331 69.873 151.108L70.2158 151.838C70.1924 152.066 70.1162 152.315 69.9873 152.585C69.8643 152.849 69.6914 153.104 69.4688 153.35C69.2461 153.59 68.9824 153.789 68.6777 153.947C68.3789 154.1 68.042 154.176 67.667 154.176C67.1162 154.176 66.6328 154.07 66.2168 153.859C65.8066 153.648 65.4873 153.338 65.2588 152.928C65.0303 152.518 64.916 152.011 64.916 151.407C64.916 150.95 64.9951 150.528 65.1533 150.142C65.3115 149.755 65.5459 149.421 65.8564 149.14C66.167 148.853 66.5566 148.63 67.0254 148.472C67.5 148.313 68.0479 148.234 68.6689 148.234H69.9873ZM77.7744 148.586V149.922H73.7402V148.586H77.7744ZM77.0801 152.84C77.3906 152.84 77.6719 152.761 77.9238 152.603C78.1816 152.444 78.3926 152.228 78.5566 151.952C78.7207 151.671 78.8145 151.352 78.8379 150.994H80.2969C80.2734 151.557 80.1123 152.081 79.8135 152.567C79.5205 153.048 79.1338 153.438 78.6533 153.736C78.1787 154.029 77.6543 154.176 77.0801 154.176C76.4648 154.176 75.9287 154.05 75.4717 153.798C75.0205 153.546 74.6455 153.2 74.3467 152.761C74.0537 152.321 73.834 151.817 73.6875 151.249C73.541 150.675 73.4678 150.068 73.4678 149.43V149.061C73.4678 148.422 73.541 147.818 73.6875 147.25C73.834 146.676 74.0537 146.169 74.3467 145.729C74.6455 145.29 75.0205 144.944 75.4717 144.692C75.9287 144.44 76.4648 144.314 77.0801 144.314C77.7246 144.314 78.2812 144.467 78.75 144.771C79.2246 145.07 79.5938 145.48 79.8574 146.002C80.127 146.518 80.2734 147.104 80.2969 147.76H78.8379C78.8145 147.367 78.7295 147.013 78.583 146.696C78.4365 146.38 78.2373 146.128 77.9854 145.94C77.7334 145.747 77.4316 145.65 77.0801 145.65C76.6699 145.65 76.3301 145.75 76.0605 145.949C75.7969 146.143 75.5889 146.406 75.4365 146.74C75.2842 147.068 75.1758 147.435 75.1113 147.839C75.0527 148.237 75.0234 148.645 75.0234 149.061V149.43C75.0234 149.846 75.0527 150.256 75.1113 150.66C75.1758 151.064 75.2842 151.431 75.4365 151.759C75.5889 152.087 75.7969 152.351 76.0605 152.55C76.3301 152.743 76.6699 152.84 77.0801 152.84ZM86.0273 149.702V148.797C86.0273 148.059 86.1211 147.411 86.3086 146.854C86.4961 146.292 86.7568 145.823 87.0908 145.448C87.4248 145.073 87.8145 144.792 88.2598 144.604C88.7051 144.411 89.1826 144.314 89.6924 144.314C90.2139 144.314 90.6973 144.411 91.1426 144.604C91.5879 144.792 91.9775 145.073 92.3115 145.448C92.6514 145.823 92.915 146.292 93.1025 146.854C93.29 147.411 93.3838 148.059 93.3838 148.797V149.702C93.3838 150.44 93.29 151.091 93.1025 151.653C92.915 152.21 92.6543 152.676 92.3203 153.051C91.9863 153.426 91.5967 153.707 91.1514 153.895C90.7061 154.082 90.2256 154.176 89.71 154.176C89.1943 154.176 88.7139 154.082 88.2686 153.895C87.8232 153.707 87.4307 153.426 87.0908 153.051C86.7568 152.676 86.4961 152.21 86.3086 151.653C86.1211 151.091 86.0273 150.44 86.0273 149.702ZM87.583 148.797V149.702C87.583 150.224 87.6357 150.681 87.7412 151.073C87.8467 151.466 87.9961 151.794 88.1895 152.058C88.3828 152.321 88.6084 152.521 88.8662 152.655C89.124 152.784 89.4053 152.849 89.71 152.849C90.0615 152.849 90.3691 152.784 90.6328 152.655C90.9023 152.521 91.125 152.321 91.3008 152.058C91.4766 151.794 91.6084 151.466 91.6963 151.073C91.7842 150.681 91.8281 150.224 91.8281 149.702V148.797C91.8281 148.275 91.7754 147.821 91.6699 147.435C91.5645 147.042 91.415 146.714 91.2217 146.45C91.0283 146.181 90.7998 145.981 90.5361 145.853C90.2783 145.718 89.9971 145.65 89.6924 145.65C89.3936 145.65 89.1152 145.718 88.8574 145.853C88.5996 145.981 88.374 146.181 88.1807 146.45C87.9932 146.714 87.8467 147.042 87.7412 147.435C87.6357 147.821 87.583 148.275 87.583 148.797ZM100.679 144.49V145.835H96.8818V144.49H100.679ZM97.084 144.49V154H95.5283V144.49H97.084ZM102.076 144.49V154H100.521V144.49H102.076ZM106.251 151.425L109.696 144.49H111.252V154H109.696V147.065L106.251 154H104.704V144.49H106.251V151.425ZM117.035 152.849C117.346 152.849 117.627 152.787 117.879 152.664C118.137 152.535 118.348 152.336 118.512 152.066C118.676 151.791 118.77 151.434 118.793 150.994H120.252C120.229 151.627 120.067 152.184 119.769 152.664C119.476 153.139 119.089 153.511 118.608 153.78C118.134 154.044 117.609 154.176 117.035 154.176C116.42 154.176 115.884 154.076 115.427 153.877C114.976 153.678 114.601 153.391 114.302 153.016C114.009 152.635 113.789 152.175 113.643 151.636C113.496 151.091 113.423 150.473 113.423 149.781V148.709C113.423 148.018 113.496 147.402 113.643 146.863C113.789 146.318 114.009 145.858 114.302 145.483C114.601 145.103 114.976 144.812 115.427 144.613C115.884 144.414 116.42 144.314 117.035 144.314C117.68 144.314 118.236 144.452 118.705 144.728C119.18 144.997 119.549 145.39 119.812 145.905C120.082 146.415 120.229 147.033 120.252 147.76H118.793C118.77 147.291 118.685 146.901 118.538 146.591C118.392 146.274 118.192 146.04 117.94 145.888C117.688 145.729 117.387 145.65 117.035 145.65C116.625 145.65 116.285 145.724 116.016 145.87C115.752 146.011 115.544 146.216 115.392 146.485C115.239 146.755 115.131 147.077 115.066 147.452C115.008 147.827 114.979 148.246 114.979 148.709V149.781C114.979 150.244 115.008 150.666 115.066 151.047C115.131 151.422 115.236 151.744 115.383 152.014C115.535 152.283 115.746 152.491 116.016 152.638C116.285 152.778 116.625 152.849 117.035 152.849ZM124.26 153.016L126.378 144.49H128.03L124.893 155.468C124.816 155.702 124.714 155.954 124.585 156.224C124.462 156.499 124.304 156.76 124.11 157.006C123.917 157.252 123.686 157.451 123.416 157.604C123.146 157.762 122.83 157.841 122.467 157.841C122.355 157.841 122.212 157.823 122.036 157.788C121.866 157.753 121.743 157.724 121.667 157.7V156.382C121.702 156.388 121.758 156.394 121.834 156.399C121.91 156.411 121.966 156.417 122.001 156.417C122.306 156.417 122.563 156.367 122.774 156.268C122.991 156.174 123.176 156.013 123.328 155.784C123.48 155.562 123.609 155.254 123.715 154.861L124.26 153.016ZM122.889 144.49L124.778 151.873L125.183 153.587L124.075 154.185L121.192 144.49H122.889ZM128.707 153.139C128.707 152.863 128.792 152.632 128.962 152.444C129.138 152.251 129.39 152.154 129.718 152.154C130.046 152.154 130.295 152.251 130.465 152.444C130.641 152.632 130.729 152.863 130.729 153.139C130.729 153.408 130.641 153.637 130.465 153.824C130.295 154.012 130.046 154.105 129.718 154.105C129.39 154.105 129.138 154.012 128.962 153.824C128.792 153.637 128.707 153.408 128.707 153.139Z" fill="#0C3313"/>
</svg>
