<svg width="180" height="189" viewBox="0 0 180 189" fill="none" xmlns="http://www.w3.org/2000/svg">
<path d="M9.8877 98.6201V100H1.86328V98.6201H9.8877ZM2.10938 98.6201V103.146H0.500977L0.492188 98.6201H2.10938ZM11.2939 98.6201L11.2764 103.138H9.67676V98.6201H11.2939ZM8.37598 87.2031V88.5918H3.73535V87.2031H8.37598ZM9.79102 87.2031V100H8.17383V87.2031H9.79102ZM3.18164 87.2031H4.79883L4.57031 92.3535C4.54102 93.127 4.48242 93.8418 4.39453 94.498C4.30664 95.1484 4.19238 95.7432 4.05176 96.2822C3.91699 96.8213 3.76172 97.3047 3.58594 97.7324C3.41016 98.1543 3.21973 98.5205 3.01465 98.8311C2.80957 99.1357 2.59277 99.3877 2.36426 99.5869C2.13574 99.7803 1.90137 99.918 1.66113 100H0.984375V98.6201H1.43262C1.56152 98.4561 1.70215 98.2188 1.85449 97.9082C2.0127 97.5977 2.16504 97.1963 2.31152 96.7041C2.46387 96.2061 2.5957 95.5996 2.70703 94.8848C2.82422 94.1699 2.90332 93.3262 2.94434 92.3535L3.18164 87.2031ZM12.7266 95.7021V94.7969C12.7266 94.0586 12.8203 93.4111 13.0078 92.8545C13.1953 92.292 13.4561 91.8232 13.79 91.4482C14.124 91.0732 14.5137 90.792 14.959 90.6045C15.4043 90.4111 15.8818 90.3145 16.3916 90.3145C16.9131 90.3145 17.3965 90.4111 17.8418 90.6045C18.2871 90.792 18.6768 91.0732 19.0107 91.4482C19.3506 91.8232 19.6143 92.292 19.8018 92.8545C19.9893 93.4111 20.083 94.0586 20.083 94.7969V95.7021C20.083 96.4404 19.9893 97.0908 19.8018 97.6533C19.6143 98.21 19.3535 98.6758 19.0195 99.0508C18.6855 99.4258 18.2959 99.707 17.8506 99.8945C17.4053 100.082 16.9248 100.176 16.4092 100.176C15.8936 100.176 15.4131 100.082 14.9678 99.8945C14.5225 99.707 14.1299 99.4258 13.79 99.0508C13.4561 98.6758 13.1953 98.21 13.0078 97.6533C12.8203 97.0908 12.7266 96.4404 12.7266 95.7021ZM14.2822 94.7969V95.7021C14.2822 96.2236 14.335 96.6807 14.4404 97.0732C14.5459 97.4658 14.6953 97.7939 14.8887 98.0576C15.082 98.3213 15.3076 98.5205 15.5654 98.6553C15.8232 98.7842 16.1045 98.8486 16.4092 98.8486C16.7607 98.8486 17.0684 98.7842 17.332 98.6553C17.6016 98.5205 17.8242 98.3213 18 98.0576C18.1758 97.7939 18.3076 97.4658 18.3955 97.0732C18.4834 96.6807 18.5273 96.2236 18.5273 95.7021V94.7969C18.5273 94.2754 18.4746 93.8213 18.3691 93.4346C18.2637 93.042 18.1143 92.7139 17.9209 92.4502C17.7275 92.1807 17.499 91.9814 17.2354 91.8525C16.9775 91.7178 16.6963 91.6504 16.3916 91.6504C16.0928 91.6504 15.8145 91.7178 15.5566 91.8525C15.2988 91.9814 15.0732 92.1807 14.8799 92.4502C14.6924 92.7139 14.5459 93.042 14.4404 93.4346C14.335 93.8213 14.2822 94.2754 14.2822 94.7969ZM25.3828 98.8486C25.6934 98.8486 25.9746 98.7871 26.2266 98.6641C26.4844 98.5352 26.6953 98.3359 26.8594 98.0664C27.0234 97.791 27.1172 97.4336 27.1406 96.9941H28.5996C28.5762 97.627 28.415 98.1836 28.1162 98.6641C27.8232 99.1387 27.4365 99.5107 26.9561 99.7803C26.4814 100.044 25.957 100.176 25.3828 100.176C24.7676 100.176 24.2314 100.076 23.7744 99.877C23.3232 99.6777 22.9482 99.3906 22.6494 99.0156C22.3564 98.6348 22.1367 98.1748 21.9902 97.6357C21.8438 97.0908 21.7705 96.4727 21.7705 95.7812V94.709C21.7705 94.0176 21.8438 93.4023 21.9902 92.8633C22.1367 92.3184 22.3564 91.8584 22.6494 91.4834C22.9482 91.1025 23.3232 90.8125 23.7744 90.6133C24.2314 90.4141 24.7676 90.3145 25.3828 90.3145C26.0273 90.3145 26.584 90.4521 27.0527 90.7275C27.5273 90.9971 27.8965 91.3896 28.1602 91.9053C28.4297 92.415 28.5762 93.0332 28.5996 93.7598H27.1406C27.1172 93.291 27.0322 92.9014 26.8857 92.5908C26.7393 92.2744 26.54 92.04 26.2881 91.8877C26.0361 91.7295 25.7344 91.6504 25.3828 91.6504C24.9727 91.6504 24.6328 91.7236 24.3633 91.8701C24.0996 92.0107 23.8916 92.2158 23.7393 92.4854C23.5869 92.7549 23.4785 93.0771 23.4141 93.4521C23.3555 93.8271 23.3262 94.2461 23.3262 94.709V95.7812C23.3262 96.2441 23.3555 96.666 23.4141 97.0469C23.4785 97.4219 23.584 97.7441 23.7305 98.0137C23.8828 98.2832 24.0938 98.4912 24.3633 98.6377C24.6328 98.7783 24.9727 98.8486 25.3828 98.8486ZM33.8203 90.4902V100H32.2646V90.4902H33.8203ZM36.4131 90.4902V91.8086H29.707V90.4902H36.4131ZM40.377 99.0156L42.4951 90.4902H44.1475L41.0098 101.468C40.9336 101.702 40.8311 101.954 40.7021 102.224C40.5791 102.499 40.4209 102.76 40.2275 103.006C40.0342 103.252 39.8027 103.451 39.5332 103.604C39.2637 103.762 38.9473 103.841 38.584 103.841C38.4727 103.841 38.3291 103.823 38.1533 103.788C37.9834 103.753 37.8604 103.724 37.7842 103.7V102.382C37.8193 102.388 37.875 102.394 37.9512 102.399C38.0273 102.411 38.083 102.417 38.1182 102.417C38.4229 102.417 38.6807 102.367 38.8916 102.268C39.1084 102.174 39.293 102.013 39.4453 101.784C39.5977 101.562 39.7266 101.254 39.832 100.861L40.377 99.0156ZM39.0059 90.4902L40.8955 97.873L41.2998 99.5869L40.1924 100.185L37.3096 90.4902H39.0059ZM50.9678 90.4902V91.835H47.1709V90.4902H50.9678ZM47.373 90.4902V100H45.8174V90.4902H47.373ZM52.3652 90.4902V100H50.8096V90.4902H52.3652ZM60.2666 94.6123V95.9307H56.2324V94.6123H60.2666ZM56.5488 90.4902V100H54.9932V90.4902H56.5488ZM61.5322 90.4902V100H59.9766V90.4902H61.5322ZM65.6807 90.4902V100H64.1338V90.4902H65.6807ZM64.0459 87.9678C64.0459 87.7041 64.1191 87.4814 64.2656 87.2998C64.4121 87.1182 64.6318 87.0273 64.9248 87.0273C65.2178 87.0273 65.4375 87.1182 65.584 87.2998C65.7363 87.4814 65.8125 87.7041 65.8125 87.9678C65.8125 88.2197 65.7363 88.4365 65.584 88.6182C65.4375 88.7939 65.2178 88.8818 64.9248 88.8818C64.6318 88.8818 64.4121 88.7939 64.2656 88.6182C64.1191 88.4365 64.0459 88.2197 64.0459 87.9678ZM72.4131 100V90.4902H73.9688V98.6641H77.4053V90.4902H78.9609V100H72.4131ZM79.9629 98.6641L79.8047 102.821H78.4248V100H77.3438V98.6641H79.9629ZM83.3818 90.4902V100H81.835V90.4902H83.3818ZM81.7471 87.9678C81.7471 87.7041 81.8203 87.4814 81.9668 87.2998C82.1133 87.1182 82.333 87.0273 82.626 87.0273C82.9189 87.0273 83.1387 87.1182 83.2852 87.2998C83.4375 87.4814 83.5137 87.7041 83.5137 87.9678C83.5137 88.2197 83.4375 88.4365 83.2852 88.6182C83.1387 88.7939 82.9189 88.8818 82.626 88.8818C82.333 88.8818 82.1133 88.7939 81.9668 88.6182C81.8203 88.4365 81.7471 88.2197 81.7471 87.9678ZM91.2568 94.6123V95.9307H87.2227V94.6123H91.2568ZM87.5391 90.4902V100H85.9834V90.4902H87.5391ZM92.5225 90.4902V100H90.9668V90.4902H92.5225ZM96.6885 97.4248L100.134 90.4902H101.689V100H100.134V93.0654L96.6885 100H95.1416V90.4902H96.6885V97.4248ZM104.273 99.1387C104.273 98.8633 104.358 98.6318 104.528 98.4443C104.704 98.251 104.956 98.1543 105.284 98.1543C105.612 98.1543 105.861 98.251 106.031 98.4443C106.207 98.6318 106.295 98.8633 106.295 99.1387C106.295 99.4082 106.207 99.6367 106.031 99.8242C105.861 100.012 105.612 100.105 105.284 100.105C104.956 100.105 104.704 100.012 104.528 99.8242C104.358 99.6367 104.273 99.4082 104.273 99.1387ZM9.70312 113.494V115.718C9.70312 116.62 9.60352 117.414 9.4043 118.1C9.21094 118.779 8.92676 119.348 8.55176 119.805C8.17676 120.262 7.72559 120.604 7.19824 120.833C6.6709 121.062 6.07617 121.176 5.41406 121.176C4.77539 121.176 4.19238 121.062 3.66504 120.833C3.1377 120.604 2.68359 120.262 2.30273 119.805C1.92188 119.348 1.62598 118.779 1.41504 118.1C1.20996 117.414 1.10742 116.62 1.10742 115.718V113.494C1.10742 112.592 1.20996 111.801 1.41504 111.121C1.62012 110.436 1.91309 109.864 2.29395 109.407C2.6748 108.95 3.12891 108.607 3.65625 108.379C4.18359 108.145 4.7666 108.027 5.40527 108.027C6.06738 108.027 6.66211 108.145 7.18945 108.379C7.72266 108.607 8.17383 108.95 8.54297 109.407C8.91797 109.864 9.20508 110.436 9.4043 111.121C9.60352 111.801 9.70312 112.592 9.70312 113.494ZM8.10352 115.718V113.477C8.10352 112.773 8.04492 112.17 7.92773 111.666C7.81055 111.156 7.6377 110.74 7.40918 110.418C7.18066 110.096 6.89941 109.858 6.56543 109.706C6.23145 109.548 5.84473 109.469 5.40527 109.469C4.98926 109.469 4.61426 109.548 4.28027 109.706C3.95215 109.858 3.6709 110.096 3.43652 110.418C3.20215 110.74 3.02051 111.156 2.8916 111.666C2.76855 112.17 2.70703 112.773 2.70703 113.477V115.718C2.70703 116.427 2.76855 117.036 2.8916 117.546C3.02051 118.05 3.20215 118.466 3.43652 118.794C3.67676 119.116 3.96387 119.356 4.29785 119.515C4.63184 119.667 5.00391 119.743 5.41406 119.743C5.85352 119.743 6.24023 119.667 6.57422 119.515C6.91406 119.356 7.19531 119.116 7.41797 118.794C7.64648 118.466 7.81641 118.05 7.92773 117.546C8.04492 117.036 8.10352 116.427 8.10352 115.718ZM17.2881 111.49V112.835H13.4912V111.49H17.2881ZM13.6934 111.49V121H12.1377V111.49H13.6934ZM18.6855 111.49V121H17.1299V111.49H18.6855ZM24.5918 111.49V121H23.0361V111.49H24.5918ZM27.1846 111.49V112.809H20.4785V111.49H27.1846ZM28.1426 116.702V115.797C28.1426 115.059 28.2363 114.411 28.4238 113.854C28.6113 113.292 28.8721 112.823 29.2061 112.448C29.54 112.073 29.9297 111.792 30.375 111.604C30.8203 111.411 31.2979 111.314 31.8076 111.314C32.3291 111.314 32.8125 111.411 33.2578 111.604C33.7031 111.792 34.0928 112.073 34.4268 112.448C34.7666 112.823 35.0303 113.292 35.2178 113.854C35.4053 114.411 35.499 115.059 35.499 115.797V116.702C35.499 117.44 35.4053 118.091 35.2178 118.653C35.0303 119.21 34.7695 119.676 34.4355 120.051C34.1016 120.426 33.7119 120.707 33.2666 120.895C32.8213 121.082 32.3408 121.176 31.8252 121.176C31.3096 121.176 30.8291 121.082 30.3838 120.895C29.9385 120.707 29.5459 120.426 29.2061 120.051C28.8721 119.676 28.6113 119.21 28.4238 118.653C28.2363 118.091 28.1426 117.44 28.1426 116.702ZM29.6982 115.797V116.702C29.6982 117.224 29.751 117.681 29.8564 118.073C29.9619 118.466 30.1113 118.794 30.3047 119.058C30.498 119.321 30.7236 119.521 30.9814 119.655C31.2393 119.784 31.5205 119.849 31.8252 119.849C32.1768 119.849 32.4844 119.784 32.748 119.655C33.0176 119.521 33.2402 119.321 33.416 119.058C33.5918 118.794 33.7236 118.466 33.8115 118.073C33.8994 117.681 33.9434 117.224 33.9434 116.702V115.797C33.9434 115.275 33.8906 114.821 33.7852 114.435C33.6797 114.042 33.5303 113.714 33.3369 113.45C33.1436 113.181 32.915 112.981 32.6514 112.853C32.3936 112.718 32.1123 112.65 31.8076 112.65C31.5088 112.65 31.2305 112.718 30.9727 112.853C30.7148 112.981 30.4893 113.181 30.2959 113.45C30.1084 113.714 29.9619 114.042 29.8564 114.435C29.751 114.821 29.6982 115.275 29.6982 115.797ZM41.335 116.816H38.7949L38.7773 115.516H40.8164C41.2207 115.516 41.5547 115.466 41.8184 115.366C42.0879 115.267 42.29 115.117 42.4248 114.918C42.5596 114.719 42.627 114.473 42.627 114.18C42.627 113.951 42.5889 113.752 42.5127 113.582C42.4365 113.406 42.3223 113.263 42.1699 113.151C42.0234 113.034 41.8389 112.949 41.6162 112.896C41.3936 112.838 41.1328 112.809 40.834 112.809H39.1904V121H37.6436V111.49H40.834C41.3496 111.49 41.8125 111.543 42.2227 111.648C42.6387 111.754 42.9902 111.915 43.2773 112.132C43.5703 112.343 43.793 112.612 43.9453 112.94C44.1035 113.269 44.1826 113.655 44.1826 114.101C44.1826 114.388 44.1328 114.66 44.0332 114.918C43.9336 115.176 43.7842 115.404 43.585 115.604C43.3916 115.803 43.1514 115.967 42.8643 116.096C42.5771 116.219 42.2461 116.298 41.8711 116.333L41.335 116.816ZM41.335 121H38.2148L39.0146 119.682H41.335C41.6924 119.682 41.9854 119.626 42.2139 119.515C42.4424 119.397 42.6123 119.233 42.7236 119.022C42.8408 118.806 42.8994 118.548 42.8994 118.249C42.8994 117.95 42.8408 117.695 42.7236 117.484C42.6123 117.268 42.4424 117.104 42.2139 116.992C41.9854 116.875 41.6924 116.816 41.335 116.816H39.252L39.2695 115.516H41.8447L42.3896 116.008C42.8408 116.049 43.2188 116.178 43.5234 116.395C43.834 116.611 44.0654 116.887 44.2178 117.221C44.376 117.549 44.4551 117.906 44.4551 118.293C44.4551 118.738 44.3848 119.131 44.2441 119.471C44.1035 119.811 43.8984 120.095 43.6289 120.323C43.3594 120.546 43.0312 120.716 42.6445 120.833C42.2578 120.944 41.8213 121 41.335 121ZM48.2607 118.425L51.7061 111.49H53.2617V121H51.7061V114.065L48.2607 121H46.7139V111.49H48.2607V118.425ZM60.416 118.838L62.9561 111.49H64.4326L60.9521 121H59.8799L56.4082 111.49H57.8848L60.416 118.838ZM57.4365 111.49V121H55.8896V111.49H57.4365ZM63.3428 121V111.49H64.8984V121H63.3428ZM74.9355 111.49V121H73.3799V111.49H74.9355ZM77.5283 111.49V112.809H70.8223V111.49H77.5283ZM83.6982 119.374V114.215C83.6982 113.84 83.6396 113.538 83.5225 113.31C83.4111 113.081 83.2412 112.914 83.0127 112.809C82.79 112.703 82.5088 112.65 82.1689 112.65C81.8408 112.65 81.5566 112.718 81.3164 112.853C81.082 112.987 80.9004 113.166 80.7715 113.389C80.6484 113.611 80.5869 113.857 80.5869 114.127H79.0312C79.0312 113.787 79.1045 113.45 79.251 113.116C79.4033 112.782 79.6201 112.48 79.9014 112.211C80.1826 111.936 80.5195 111.719 80.9121 111.561C81.3105 111.396 81.7559 111.314 82.248 111.314C82.834 111.314 83.3525 111.411 83.8037 111.604C84.2549 111.792 84.6094 112.1 84.8672 112.527C85.125 112.955 85.2539 113.523 85.2539 114.232V118.926C85.2539 119.242 85.2773 119.579 85.3242 119.937C85.377 120.294 85.4502 120.602 85.5439 120.859V121H83.9355C83.8594 120.812 83.8008 120.563 83.7598 120.253C83.7188 119.937 83.6982 119.644 83.6982 119.374ZM83.9443 115.234L83.9619 116.377H82.8809C82.5117 116.377 82.1748 116.418 81.8701 116.5C81.5713 116.582 81.3135 116.702 81.0967 116.86C80.8799 117.013 80.7129 117.203 80.5957 117.432C80.4844 117.66 80.4287 117.921 80.4287 118.214C80.4287 118.595 80.4814 118.899 80.5869 119.128C80.6924 119.351 80.8506 119.512 81.0615 119.611C81.2725 119.711 81.5391 119.761 81.8613 119.761C82.2539 119.761 82.5996 119.67 82.8984 119.488C83.1973 119.307 83.4287 119.087 83.5928 118.829C83.7627 118.571 83.8418 118.331 83.8301 118.108L84.1729 118.838C84.1494 119.066 84.0732 119.315 83.9443 119.585C83.8213 119.849 83.6484 120.104 83.4258 120.35C83.2031 120.59 82.9395 120.789 82.6348 120.947C82.3359 121.1 81.999 121.176 81.624 121.176C81.0732 121.176 80.5898 121.07 80.1738 120.859C79.7637 120.648 79.4443 120.338 79.2158 119.928C78.9873 119.518 78.873 119.011 78.873 118.407C78.873 117.95 78.9521 117.528 79.1104 117.142C79.2686 116.755 79.5029 116.421 79.8135 116.14C80.124 115.853 80.5137 115.63 80.9824 115.472C81.457 115.313 82.0049 115.234 82.626 115.234H83.9443ZM97.0928 111.49V112.835H93.2959V111.49H97.0928ZM93.498 111.49V121H91.9424V111.49H93.498ZM98.4902 111.49V121H96.9346V111.49H98.4902ZM100.652 116.702V115.797C100.652 115.059 100.746 114.411 100.934 113.854C101.121 113.292 101.382 112.823 101.716 112.448C102.05 112.073 102.439 111.792 102.885 111.604C103.33 111.411 103.808 111.314 104.317 111.314C104.839 111.314 105.322 111.411 105.768 111.604C106.213 111.792 106.603 112.073 106.937 112.448C107.276 112.823 107.54 113.292 107.728 113.854C107.915 114.411 108.009 115.059 108.009 115.797V116.702C108.009 117.44 107.915 118.091 107.728 118.653C107.54 119.21 107.279 119.676 106.945 120.051C106.611 120.426 106.222 120.707 105.776 120.895C105.331 121.082 104.851 121.176 104.335 121.176C103.819 121.176 103.339 121.082 102.894 120.895C102.448 120.707 102.056 120.426 101.716 120.051C101.382 119.676 101.121 119.21 100.934 118.653C100.746 118.091 100.652 117.44 100.652 116.702ZM102.208 115.797V116.702C102.208 117.224 102.261 117.681 102.366 118.073C102.472 118.466 102.621 118.794 102.814 119.058C103.008 119.321 103.233 119.521 103.491 119.655C103.749 119.784 104.03 119.849 104.335 119.849C104.687 119.849 104.994 119.784 105.258 119.655C105.527 119.521 105.75 119.321 105.926 119.058C106.102 118.794 106.233 118.466 106.321 118.073C106.409 117.681 106.453 117.224 106.453 116.702V115.797C106.453 115.275 106.4 114.821 106.295 114.435C106.189 114.042 106.04 113.714 105.847 113.45C105.653 113.181 105.425 112.981 105.161 112.853C104.903 112.718 104.622 112.65 104.317 112.65C104.019 112.65 103.74 112.718 103.482 112.853C103.225 112.981 102.999 113.181 102.806 113.45C102.618 113.714 102.472 114.042 102.366 114.435C102.261 114.821 102.208 115.275 102.208 115.797ZM113.309 119.849C113.619 119.849 113.9 119.787 114.152 119.664C114.41 119.535 114.621 119.336 114.785 119.066C114.949 118.791 115.043 118.434 115.066 117.994H116.525C116.502 118.627 116.341 119.184 116.042 119.664C115.749 120.139 115.362 120.511 114.882 120.78C114.407 121.044 113.883 121.176 113.309 121.176C112.693 121.176 112.157 121.076 111.7 120.877C111.249 120.678 110.874 120.391 110.575 120.016C110.282 119.635 110.062 119.175 109.916 118.636C109.77 118.091 109.696 117.473 109.696 116.781V115.709C109.696 115.018 109.77 114.402 109.916 113.863C110.062 113.318 110.282 112.858 110.575 112.483C110.874 112.103 111.249 111.812 111.7 111.613C112.157 111.414 112.693 111.314 113.309 111.314C113.953 111.314 114.51 111.452 114.979 111.728C115.453 111.997 115.822 112.39 116.086 112.905C116.355 113.415 116.502 114.033 116.525 114.76H115.066C115.043 114.291 114.958 113.901 114.812 113.591C114.665 113.274 114.466 113.04 114.214 112.888C113.962 112.729 113.66 112.65 113.309 112.65C112.898 112.65 112.559 112.724 112.289 112.87C112.025 113.011 111.817 113.216 111.665 113.485C111.513 113.755 111.404 114.077 111.34 114.452C111.281 114.827 111.252 115.246 111.252 115.709V116.781C111.252 117.244 111.281 117.666 111.34 118.047C111.404 118.422 111.51 118.744 111.656 119.014C111.809 119.283 112.02 119.491 112.289 119.638C112.559 119.778 112.898 119.849 113.309 119.849ZM121.746 111.49V121H120.19V111.49H121.746ZM124.339 111.49V112.809H117.633V111.49H124.339ZM127.661 111.49V121H126.114V111.49H127.661ZM126.026 108.968C126.026 108.704 126.1 108.481 126.246 108.3C126.393 108.118 126.612 108.027 126.905 108.027C127.198 108.027 127.418 108.118 127.564 108.3C127.717 108.481 127.793 108.704 127.793 108.968C127.793 109.22 127.717 109.437 127.564 109.618C127.418 109.794 127.198 109.882 126.905 109.882C126.612 109.882 126.393 109.794 126.246 109.618C126.1 109.437 126.026 109.22 126.026 108.968ZM131.81 118.425L135.255 111.49H136.811V121H135.255V114.065L131.81 121H130.263V111.49H131.81V118.425ZM134.842 108.045H136.16C136.16 108.502 136.055 108.909 135.844 109.267C135.633 109.618 135.331 109.894 134.938 110.093C134.546 110.292 134.08 110.392 133.541 110.392C132.727 110.392 132.082 110.175 131.607 109.741C131.139 109.302 130.904 108.736 130.904 108.045H132.223C132.223 108.391 132.322 108.695 132.521 108.959C132.721 109.223 133.061 109.354 133.541 109.354C134.01 109.354 134.344 109.223 134.543 108.959C134.742 108.695 134.842 108.391 134.842 108.045ZM144.712 115.612V116.931H140.678V115.612H144.712ZM140.994 111.49V121H139.438V111.49H140.994ZM145.978 111.49V121H144.422V111.49H145.978ZM150.144 118.425L153.589 111.49H155.145V121H153.589V114.065L150.144 121H148.597V111.49H150.144V118.425ZM162.299 118.838L164.839 111.49H166.315L162.835 121H161.763L158.291 111.49H159.768L162.299 118.838ZM159.319 111.49V121H157.772V111.49H159.319ZM165.226 121V111.49H166.781V121H165.226ZM2.86523 132.49V142H1.30957V132.49H2.86523ZM8.09473 132.49L4.27148 137.939H2.34668L2.10059 136.516H3.63867L6.23145 132.49H8.09473ZM6.37207 142L3.58594 137.693L4.5791 136.516L8.32324 142H6.37207ZM15.126 132.49V133.835H11.3379V132.49H15.126ZM16.5146 132.49V142H14.9678V132.49H16.5146ZM10.9688 132.49H12.5244L12.3047 137.078C12.2695 137.787 12.2109 138.414 12.1289 138.959C12.0527 139.498 11.9443 139.961 11.8037 140.348C11.6689 140.734 11.499 141.051 11.2939 141.297C11.0947 141.537 10.8545 141.716 10.5732 141.833C10.2979 141.944 9.97852 142 9.61523 142H9.14941V140.567L9.45703 140.541C9.66211 140.523 9.83789 140.465 9.98438 140.365C10.1367 140.266 10.2598 140.119 10.3535 139.926C10.4531 139.727 10.5322 139.472 10.5908 139.161C10.6553 138.851 10.7051 138.481 10.7402 138.054C10.7754 137.626 10.8018 137.128 10.8193 136.56L10.9688 132.49ZM20.6807 132.49V142H19.1338V132.49H20.6807ZM19.0459 129.968C19.0459 129.704 19.1191 129.481 19.2656 129.3C19.4121 129.118 19.6318 129.027 19.9248 129.027C20.2178 129.027 20.4375 129.118 20.584 129.3C20.7363 129.481 20.8125 129.704 20.8125 129.968C20.8125 130.22 20.7363 130.437 20.584 130.618C20.4375 130.794 20.2178 130.882 19.9248 130.882C19.6318 130.882 19.4121 130.794 19.2656 130.618C19.1191 130.437 19.0459 130.22 19.0459 129.968ZM27.2021 136.586V137.922H23.168V136.586H27.2021ZM26.5078 140.84C26.8184 140.84 27.0996 140.761 27.3516 140.603C27.6094 140.444 27.8203 140.228 27.9844 139.952C28.1484 139.671 28.2422 139.352 28.2656 138.994H29.7246C29.7012 139.557 29.54 140.081 29.2412 140.567C28.9482 141.048 28.5615 141.438 28.0811 141.736C27.6064 142.029 27.082 142.176 26.5078 142.176C25.8926 142.176 25.3564 142.05 24.8994 141.798C24.4482 141.546 24.0732 141.2 23.7744 140.761C23.4814 140.321 23.2617 139.817 23.1152 139.249C22.9688 138.675 22.8955 138.068 22.8955 137.43V137.061C22.8955 136.422 22.9688 135.818 23.1152 135.25C23.2617 134.676 23.4814 134.169 23.7744 133.729C24.0732 133.29 24.4482 132.944 24.8994 132.692C25.3564 132.44 25.8926 132.314 26.5078 132.314C27.1523 132.314 27.709 132.467 28.1777 132.771C28.6523 133.07 29.0215 133.48 29.2852 134.002C29.5547 134.518 29.7012 135.104 29.7246 135.76H28.2656C28.2422 135.367 28.1572 135.013 28.0107 134.696C27.8643 134.38 27.665 134.128 27.4131 133.94C27.1611 133.747 26.8594 133.65 26.5078 133.65C26.0977 133.65 25.7578 133.75 25.4883 133.949C25.2246 134.143 25.0166 134.406 24.8643 134.74C24.7119 135.068 24.6035 135.435 24.5391 135.839C24.4805 136.237 24.4512 136.645 24.4512 137.061V137.43C24.4512 137.846 24.4805 138.256 24.5391 138.66C24.6035 139.064 24.7119 139.431 24.8643 139.759C25.0166 140.087 25.2246 140.351 25.4883 140.55C25.7578 140.743 26.0977 140.84 26.5078 140.84ZM37.0635 136.612V137.931H33.0293V136.612H37.0635ZM33.3457 132.49V142H31.79V132.49H33.3457ZM38.3291 132.49V142H36.7734V132.49H38.3291ZM44.2266 132.49V142H42.6709V132.49H44.2266ZM46.8193 132.49V133.809H40.1133V132.49H46.8193ZM52.9893 140.374V135.215C52.9893 134.84 52.9307 134.538 52.8135 134.31C52.7021 134.081 52.5322 133.914 52.3037 133.809C52.0811 133.703 51.7998 133.65 51.46 133.65C51.1318 133.65 50.8477 133.718 50.6074 133.853C50.373 133.987 50.1914 134.166 50.0625 134.389C49.9395 134.611 49.8779 134.857 49.8779 135.127H48.3223C48.3223 134.787 48.3955 134.45 48.542 134.116C48.6943 133.782 48.9111 133.48 49.1924 133.211C49.4736 132.936 49.8105 132.719 50.2031 132.561C50.6016 132.396 51.0469 132.314 51.5391 132.314C52.125 132.314 52.6436 132.411 53.0947 132.604C53.5459 132.792 53.9004 133.1 54.1582 133.527C54.416 133.955 54.5449 134.523 54.5449 135.232V139.926C54.5449 140.242 54.5684 140.579 54.6152 140.937C54.668 141.294 54.7412 141.602 54.835 141.859V142H53.2266C53.1504 141.812 53.0918 141.563 53.0508 141.253C53.0098 140.937 52.9893 140.644 52.9893 140.374ZM53.2354 136.234L53.2529 137.377H52.1719C51.8027 137.377 51.4658 137.418 51.1611 137.5C50.8623 137.582 50.6045 137.702 50.3877 137.86C50.1709 138.013 50.0039 138.203 49.8867 138.432C49.7754 138.66 49.7197 138.921 49.7197 139.214C49.7197 139.595 49.7725 139.899 49.8779 140.128C49.9834 140.351 50.1416 140.512 50.3525 140.611C50.5635 140.711 50.8301 140.761 51.1523 140.761C51.5449 140.761 51.8906 140.67 52.1895 140.488C52.4883 140.307 52.7197 140.087 52.8838 139.829C53.0537 139.571 53.1328 139.331 53.1211 139.108L53.4639 139.838C53.4404 140.066 53.3643 140.315 53.2354 140.585C53.1123 140.849 52.9395 141.104 52.7168 141.35C52.4941 141.59 52.2305 141.789 51.9258 141.947C51.627 142.1 51.29 142.176 50.915 142.176C50.3643 142.176 49.8809 142.07 49.4648 141.859C49.0547 141.648 48.7354 141.338 48.5068 140.928C48.2783 140.518 48.1641 140.011 48.1641 139.407C48.1641 138.95 48.2432 138.528 48.4014 138.142C48.5596 137.755 48.7939 137.421 49.1045 137.14C49.415 136.853 49.8047 136.63 50.2734 136.472C50.748 136.313 51.2959 136.234 51.917 136.234H53.2354ZM61.6289 139.838L64.1689 132.49H65.6455L62.165 142H61.0928L57.6211 132.49H59.0977L61.6289 139.838ZM58.6494 132.49V142H57.1025V132.49H58.6494ZM64.5557 142V132.49H66.1113V142H64.5557ZM74.2852 134.318V145.656H72.7295V132.49H74.1445L74.2852 134.318ZM79.6025 136.814V137.702C79.6025 138.452 79.5322 139.108 79.3916 139.671C79.2568 140.228 79.0547 140.693 78.7852 141.068C78.5215 141.438 78.1963 141.716 77.8096 141.903C77.4229 142.085 76.9805 142.176 76.4824 142.176C75.9844 142.176 75.5508 142.082 75.1816 141.895C74.8184 141.701 74.5107 141.423 74.2588 141.06C74.0127 140.696 73.8164 140.26 73.6699 139.75C73.5293 139.234 73.4326 138.657 73.3799 138.019V136.665C73.4326 135.991 73.5293 135.388 73.6699 134.854C73.8105 134.315 74.0039 133.858 74.25 133.483C74.502 133.103 74.8096 132.812 75.1729 132.613C75.542 132.414 75.9727 132.314 76.4648 132.314C76.9746 132.314 77.4229 132.402 77.8096 132.578C78.2021 132.754 78.5303 133.026 78.7939 133.396C79.0635 133.759 79.2656 134.225 79.4004 134.793C79.5352 135.355 79.6025 136.029 79.6025 136.814ZM78.0469 137.702V136.814C78.0469 136.287 78.0059 135.827 77.9238 135.435C77.8477 135.042 77.7246 134.717 77.5547 134.459C77.3848 134.201 77.1709 134.008 76.9131 133.879C76.6553 133.75 76.3447 133.686 75.9814 133.686C75.6709 133.686 75.3955 133.75 75.1553 133.879C74.9209 134.008 74.7188 134.184 74.5488 134.406C74.3789 134.623 74.2383 134.872 74.127 135.153C74.0156 135.429 73.9336 135.716 73.8809 136.015V138.678C73.9805 139.053 74.1123 139.407 74.2764 139.741C74.4404 140.069 74.6602 140.336 74.9355 140.541C75.2168 140.746 75.5713 140.849 75.999 140.849C76.3564 140.849 76.6641 140.784 76.9219 140.655C77.1797 140.526 77.3906 140.333 77.5547 140.075C77.7246 139.812 77.8477 139.483 77.9238 139.091C78.0059 138.692 78.0469 138.229 78.0469 137.702ZM81.2812 137.702V136.797C81.2812 136.059 81.375 135.411 81.5625 134.854C81.75 134.292 82.0107 133.823 82.3447 133.448C82.6787 133.073 83.0684 132.792 83.5137 132.604C83.959 132.411 84.4365 132.314 84.9463 132.314C85.4678 132.314 85.9512 132.411 86.3965 132.604C86.8418 132.792 87.2314 133.073 87.5654 133.448C87.9053 133.823 88.1689 134.292 88.3564 134.854C88.5439 135.411 88.6377 136.059 88.6377 136.797V137.702C88.6377 138.44 88.5439 139.091 88.3564 139.653C88.1689 140.21 87.9082 140.676 87.5742 141.051C87.2402 141.426 86.8506 141.707 86.4053 141.895C85.96 142.082 85.4795 142.176 84.9639 142.176C84.4482 142.176 83.9678 142.082 83.5225 141.895C83.0771 141.707 82.6846 141.426 82.3447 141.051C82.0107 140.676 81.75 140.21 81.5625 139.653C81.375 139.091 81.2812 138.44 81.2812 137.702ZM82.8369 136.797V137.702C82.8369 138.224 82.8896 138.681 82.9951 139.073C83.1006 139.466 83.25 139.794 83.4434 140.058C83.6367 140.321 83.8623 140.521 84.1201 140.655C84.3779 140.784 84.6592 140.849 84.9639 140.849C85.3154 140.849 85.623 140.784 85.8867 140.655C86.1562 140.521 86.3789 140.321 86.5547 140.058C86.7305 139.794 86.8623 139.466 86.9502 139.073C87.0381 138.681 87.082 138.224 87.082 137.702V136.797C87.082 136.275 87.0293 135.821 86.9238 135.435C86.8184 135.042 86.6689 134.714 86.4756 134.45C86.2822 134.181 86.0537 133.981 85.79 133.853C85.5322 133.718 85.251 133.65 84.9463 133.65C84.6475 133.65 84.3691 133.718 84.1113 133.853C83.8535 133.981 83.6279 134.181 83.4346 134.45C83.2471 134.714 83.1006 135.042 82.9951 135.435C82.8896 135.821 82.8369 136.275 82.8369 136.797ZM95.748 128.351H97.0049C97.0049 128.925 96.9258 129.382 96.7676 129.722C96.6152 130.056 96.4102 130.313 96.1523 130.495C95.8945 130.677 95.6074 130.814 95.291 130.908C94.9746 131.002 94.6523 131.093 94.3242 131.181C93.9141 131.286 93.5303 131.453 93.1729 131.682C92.8154 131.904 92.5078 132.221 92.25 132.631C91.998 133.041 91.8135 133.574 91.6963 134.23C91.585 134.887 91.5645 135.698 91.6348 136.665V137.474H90.3691V136.665C90.3691 135.581 90.457 134.635 90.6328 133.826C90.8086 133.018 91.0576 132.335 91.3799 131.778C91.7021 131.222 92.083 130.779 92.5225 130.451C92.9619 130.123 93.4482 129.897 93.9814 129.774C94.3213 129.687 94.623 129.593 94.8867 129.493C95.1562 129.388 95.3672 129.247 95.5195 129.071C95.6719 128.896 95.748 128.655 95.748 128.351ZM94.2627 133.035C94.7842 133.035 95.2471 133.144 95.6514 133.36C96.0557 133.577 96.3984 133.879 96.6797 134.266C96.9609 134.652 97.1748 135.109 97.3213 135.637C97.4678 136.158 97.541 136.727 97.541 137.342V137.535C97.541 138.197 97.4619 138.812 97.3037 139.381C97.1455 139.943 96.9111 140.436 96.6006 140.857C96.2959 141.273 95.9209 141.599 95.4756 141.833C95.0303 142.067 94.5234 142.185 93.9551 142.185C93.3867 142.185 92.8799 142.067 92.4346 141.833C91.9951 141.599 91.6201 141.273 91.3096 140.857C91.0049 140.436 90.7705 139.943 90.6064 139.381C90.4482 138.812 90.3691 138.197 90.3691 137.535V137.342C90.3691 137.195 90.3955 137.052 90.4482 136.911C90.501 136.771 90.5625 136.627 90.6328 136.48C90.7031 136.334 90.7676 136.179 90.8262 136.015C91.0078 135.487 91.2598 134.998 91.582 134.547C91.9043 134.096 92.2881 133.732 92.7334 133.457C93.1846 133.176 93.6943 133.035 94.2627 133.035ZM93.9463 134.362C93.4717 134.362 93.085 134.5 92.7861 134.775C92.4932 135.051 92.2764 135.417 92.1357 135.874C91.9951 136.325 91.9248 136.814 91.9248 137.342V137.535C91.9248 137.98 91.9629 138.402 92.0391 138.801C92.1152 139.199 92.2354 139.554 92.3994 139.864C92.5635 140.169 92.7744 140.409 93.0322 140.585C93.29 140.761 93.5977 140.849 93.9551 140.849C94.3125 140.849 94.6172 140.761 94.8691 140.585C95.127 140.409 95.3379 140.169 95.502 139.864C95.666 139.554 95.7861 139.199 95.8623 138.801C95.9443 138.402 95.9854 137.98 95.9854 137.535V137.342C95.9854 136.943 95.9443 136.565 95.8623 136.208C95.7861 135.851 95.666 135.534 95.502 135.259C95.3379 134.983 95.127 134.767 94.8691 134.608C94.6113 134.444 94.3037 134.362 93.9463 134.362ZM100.907 139.425L104.353 132.49H105.908V142H104.353V135.065L100.907 142H99.3604V132.49H100.907V139.425ZM113.062 139.838L115.603 132.49H117.079L113.599 142H112.526L109.055 132.49H110.531L113.062 139.838ZM110.083 132.49V142H108.536V132.49H110.083ZM115.989 142V132.49H117.545V142H115.989ZM119.707 137.702V136.797C119.707 136.059 119.801 135.411 119.988 134.854C120.176 134.292 120.437 133.823 120.771 133.448C121.104 133.073 121.494 132.792 121.939 132.604C122.385 132.411 122.862 132.314 123.372 132.314C123.894 132.314 124.377 132.411 124.822 132.604C125.268 132.792 125.657 133.073 125.991 133.448C126.331 133.823 126.595 134.292 126.782 134.854C126.97 135.411 127.063 136.059 127.063 136.797V137.702C127.063 138.44 126.97 139.091 126.782 139.653C126.595 140.21 126.334 140.676 126 141.051C125.666 141.426 125.276 141.707 124.831 141.895C124.386 142.082 123.905 142.176 123.39 142.176C122.874 142.176 122.394 142.082 121.948 141.895C121.503 141.707 121.11 141.426 120.771 141.051C120.437 140.676 120.176 140.21 119.988 139.653C119.801 139.091 119.707 138.44 119.707 137.702ZM121.263 136.797V137.702C121.263 138.224 121.315 138.681 121.421 139.073C121.526 139.466 121.676 139.794 121.869 140.058C122.062 140.321 122.288 140.521 122.546 140.655C122.804 140.784 123.085 140.849 123.39 140.849C123.741 140.849 124.049 140.784 124.312 140.655C124.582 140.521 124.805 140.321 124.98 140.058C125.156 139.794 125.288 139.466 125.376 139.073C125.464 138.681 125.508 138.224 125.508 137.702V136.797C125.508 136.275 125.455 135.821 125.35 135.435C125.244 135.042 125.095 134.714 124.901 134.45C124.708 134.181 124.479 133.981 124.216 133.853C123.958 133.718 123.677 133.65 123.372 133.65C123.073 133.65 122.795 133.718 122.537 133.853C122.279 133.981 122.054 134.181 121.86 134.45C121.673 134.714 121.526 135.042 121.421 135.435C121.315 135.821 121.263 136.275 121.263 136.797ZM4.23633 158.456H2.69824V157.454H4.11328C4.45312 157.454 4.71973 157.398 4.91309 157.287C5.10645 157.17 5.24414 157.009 5.32617 156.804C5.4082 156.599 5.44922 156.358 5.44922 156.083C5.44922 155.837 5.40234 155.605 5.30859 155.389C5.21484 155.166 5.0625 154.987 4.85156 154.853C4.64062 154.712 4.35938 154.642 4.00781 154.642C3.7207 154.642 3.45996 154.709 3.22559 154.844C2.99121 154.973 2.80664 155.151 2.67188 155.38C2.53711 155.603 2.46973 155.854 2.46973 156.136H0.922852C0.922852 155.556 1.06055 155.058 1.33594 154.642C1.61719 154.22 1.99219 153.895 2.46094 153.666C2.92969 153.438 3.44531 153.323 4.00781 153.323C4.47656 153.323 4.89551 153.385 5.26465 153.508C5.63379 153.625 5.94727 153.801 6.20508 154.035C6.46289 154.264 6.65918 154.551 6.79395 154.896C6.93457 155.236 7.00488 155.632 7.00488 156.083C7.00488 156.405 6.94043 156.71 6.81152 156.997C6.68262 157.284 6.49805 157.539 6.25781 157.762C6.01758 157.979 5.72461 158.148 5.37891 158.271C5.03906 158.395 4.6582 158.456 4.23633 158.456ZM2.69824 157.841H4.23633C4.70508 157.841 5.12109 157.896 5.48438 158.008C5.84766 158.113 6.15234 158.271 6.39844 158.482C6.65039 158.693 6.83789 158.954 6.96094 159.265C7.08984 159.569 7.1543 159.921 7.1543 160.319C7.1543 160.765 7.07812 161.166 6.92578 161.523C6.77344 161.875 6.55664 162.174 6.27539 162.42C6 162.666 5.66895 162.854 5.28223 162.982C4.90137 163.111 4.47656 163.176 4.00781 163.176C3.48047 163.176 2.9707 163.07 2.47852 162.859C1.99219 162.648 1.59082 162.323 1.27441 161.884C0.958008 161.438 0.799805 160.873 0.799805 160.188H2.34668C2.34668 160.475 2.41406 160.747 2.54883 161.005C2.68945 161.263 2.88281 161.471 3.12891 161.629C3.38086 161.787 3.67383 161.866 4.00781 161.866C4.35938 161.866 4.65234 161.796 4.88672 161.655C5.12109 161.515 5.29688 161.327 5.41406 161.093C5.53125 160.858 5.58984 160.604 5.58984 160.328C5.58984 159.971 5.53711 159.684 5.43164 159.467C5.32617 159.25 5.16504 159.092 4.94824 158.992C4.73145 158.887 4.45312 158.834 4.11328 158.834H2.69824V157.841ZM14.6338 157.612V158.931H10.5996V157.612H14.6338ZM10.916 153.49V163H9.36035V153.49H10.916ZM15.8994 153.49V163H14.3438V153.49H15.8994ZM20.0654 160.425L23.5107 153.49H25.0664V163H23.5107V156.065L20.0654 163H18.5186V153.49H20.0654V160.425ZM29.9004 158.86L26.9473 153.49H28.8193L30.6738 157.428H32.3174L32.0713 158.86H29.9004ZM30.7266 158.693L28.6699 163H26.71L29.7422 157.516L30.7266 158.693ZM33.1084 153.49V163H31.5527V153.49H33.1084ZM37.7139 153.49L34.7695 158.86H32.5898L32.3438 157.428H33.9785L35.8418 153.49H37.7139ZM35.9824 163L33.9258 158.693L34.9189 157.516L37.9424 163H35.9824ZM41.1855 153.49V163H39.6299V153.49H41.1855ZM46.415 153.49L42.5918 158.939H40.667L40.4209 157.516H41.959L44.5518 153.49H46.415ZM44.6924 163L41.9062 158.693L42.8994 157.516L46.6436 163H44.6924ZM49.8252 160.425L53.2705 153.49H54.8262V163H53.2705V156.065L49.8252 163H48.2783V153.49H49.8252V160.425ZM57.4102 162.139C57.4102 161.863 57.4951 161.632 57.665 161.444C57.8408 161.251 58.0928 161.154 58.4209 161.154C58.749 161.154 58.998 161.251 59.168 161.444C59.3438 161.632 59.4316 161.863 59.4316 162.139C59.4316 162.408 59.3438 162.637 59.168 162.824C58.998 163.012 58.749 163.105 58.4209 163.105C58.0928 163.105 57.8408 163.012 57.665 162.824C57.4951 162.637 57.4102 162.408 57.4102 162.139Z" fill="#0C3313"/>
<path d="M18.5811 37.6316L6 25.2632H10.1476H14.2952V12.6316V0H31.4386H48.5819V12.6316V25.2632H52.7296H56.8772L44.2961 37.6316C37.3765 44.4342 31.5906 50 31.4386 50C31.2866 50 25.5007 44.4342 18.5811 37.6316ZM32.5101 30.2631C32.5101 29.4079 32.8101 28.9474 33.3672 28.9474C33.8387 28.9474 35.0749 28.1118 36.1144 27.0906C37.8131 25.4218 37.9749 25.018 37.7134 23.1023C37.3605 20.5178 36.2465 19.2271 32.9514 17.5855C30.4054 16.3171 29.5367 15.0512 30.1444 13.4952C30.6941 12.088 32.9682 12.4076 33.3615 13.9474C33.648 15.0689 34.0055 15.2632 35.7825 15.2632C37.4117 15.2632 37.8669 15.0618 37.8653 14.3421C37.8623 12.7757 35.8275 10.0455 34.4017 9.6939C33.342 9.4326 33.0458 9.02706 33.0458 7.83767C33.0458 6.66667 32.7988 6.3158 31.9743 6.3158C31.1901 6.3158 30.9029 6.66666 30.9029 7.6245C30.9029 8.60347 30.4642 9.1134 29.1618 9.64826C26.6925 10.6623 25.8134 11.9359 25.8134 14.4993C25.8134 17.1794 26.9035 18.5366 30.492 20.3244C33.4189 21.7826 34.4318 23.877 32.7829 25.0615C31.6134 25.9016 29.8394 25.1437 29.437 23.632C29.065 22.2343 25.0088 22.1615 25.0118 23.5527C25.0149 25.2757 27.0447 27.7883 28.9907 28.4796C30.4281 28.9902 30.9029 29.4593 30.9029 30.3689C30.9029 31.0936 31.2252 31.579 31.7065 31.579C32.2065 31.579 32.5101 31.0819 32.5101 30.2631Z" fill="#EB7B15"/>
</svg>
